<?xml version="1.0" encoding="UTF-8"?>
<svg width="24px" height="25px" viewBox="0 0 24 25" version="1.1" xmlns="http://www.w3.org/2000/svg" xmlns:xlink="http://www.w3.org/1999/xlink">
    <!-- Generator: Sketch 53.2 (72643) - https://sketchapp.com -->
    <title>facebook_icon_white</title>
    <desc>Created with Sketch.</desc>
    <g id="Symbols" stroke="none" stroke-width="1" fill="none" fill-rule="evenodd">
        <g id="header" transform="translate(-1006.000000, -27.000000)" fill="#FFFFFF">
            <path d="M1028.04563,27.9525193 L1007.28755,27.9525193 C1006.57715,27.9525193 1006.00019,28.5376868 1006.00019,29.2591663 L1006.00019,50.3115667 C1006.00019,51.0330462 1006.57715,51.6182137 1007.28755,51.6182137 L1018.46387,51.6182137 L1018.46387,42.4541589 L1015.42259,42.4541589 L1015.42259,38.8827869 L1018.46387,38.8827869 L1018.46387,36.2480725 C1018.46387,33.1917648 1020.30419,31.5268122 1022.99219,31.5268122 C1024.28051,31.5268122 1025.38643,31.6241779 1025.70899,31.6670188 L1025.70899,34.8625593 L1023.84467,34.863533 C1022.38355,34.863533 1022.10035,35.5674866 1022.10035,36.6015098 L1022.10035,38.8827869 L1025.58611,38.8827869 L1025.13299,42.4541589 L1022.10035,42.4541589 L1022.10035,51.6182137 L1028.04563,51.6182137 C1028.75699,51.6182137 1029.33395,51.0330462 1029.33395,50.3115667 L1029.33395,29.2591663 C1029.33395,28.5376868 1028.75699,27.9525193 1028.04563,27.9525193" id="facebook_icon_white"></path>
        </g>
    </g>
</svg>