<?xml version="1.0" encoding="UTF-8"?>
<svg width="24px" height="25px" viewBox="0 0 24 25" version="1.1" xmlns="http://www.w3.org/2000/svg" xmlns:xlink="http://www.w3.org/1999/xlink">
    <!-- Generator: Sketch 53.2 (72643) - https://sketchapp.com -->
    <title>instagram_icon_white</title>
    <desc>Created with Sketch.</desc>
    <g id="Symbols" stroke="none" stroke-width="1" fill="none" fill-rule="evenodd">
        <g id="header" transform="translate(-1056.000000, -27.000000)" fill="#FFFFFF">
            <g id="instagram_icon_white" transform="translate(1056.295008, 27.952519)">
                <path d="M11.66688,3.55271368e-15 C8.49792,3.55271368e-15 8.10048,0.0136311907 6.85632,0.0710769231 C5.61408,0.128522655 4.76736,0.32909589 4.02432,0.621192835 C3.25728,0.923026344 2.6064,1.32806744 1.9584,1.98625922 C1.30944,2.644451 0.91104,3.30459009 0.61248,4.08156797 C0.32448,4.83517808 0.12672,5.69491675 0.07008,6.95482824 C0.01344,8.21571338 6.75015599e-14,8.61978082 6.75015599e-14,11.8328472 C6.75015599e-14,15.0459136 0.01344,15.4490074 0.07008,16.7108662 C0.12672,17.9707777 0.32448,18.83149 0.61248,19.5831528 C0.91104,20.362078 1.30944,21.0222171 1.9584,21.6794352 C2.6064,22.3366533 3.25728,22.7416944 4.02432,23.0445016 C4.76736,23.3365985 5.61408,23.5371718 6.85632,23.5936438 C8.10048,23.6520632 8.49792,23.6656944 11.66688,23.6656944 C14.83488,23.6656944 15.23232,23.6520632 16.47744,23.5936438 C17.71872,23.5371718 18.5664,23.3365985 19.30848,23.0445016 C20.07648,22.7416944 20.72736,22.3366533 21.37536,21.6794352 C22.02336,21.0222171 22.42272,20.362078 22.72128,19.5831528 C23.00928,18.83149 23.20704,17.9707777 23.26272,16.7108662 C23.32032,15.4490074 23.3328,15.0459136 23.3328,11.8328472 C23.3328,8.61978082 23.32032,8.21571338 23.26272,6.95482824 C23.20704,5.69491675 23.00928,4.83517808 22.72128,4.08156797 C22.42272,3.30459009 22.02336,2.644451 21.37536,1.98625922 C20.72736,1.32806744 20.07648,0.923026344 19.30848,0.621192835 C18.5664,0.32909589 17.71872,0.128522655 16.47744,0.0710769231 C15.23232,0.0136311907 14.83488,3.55271368e-15 11.66688,3.55271368e-15 M11.66688,2.13133404 C14.78208,2.13133404 15.15072,2.14399157 16.38048,2.2014373 C17.51904,2.2530411 18.13632,2.44679874 18.5472,2.60842571 C19.09152,2.82263014 19.48128,3.07967545 19.88832,3.49347945 C20.29632,3.90825711 20.54976,4.30161433 20.76192,4.85367756 C20.92128,5.27137619 21.11136,5.89841096 21.1632,7.05122023 C21.21888,8.29847418 21.23136,8.67333193 21.23136,11.8328472 C21.23136,14.9913888 21.21888,15.3662466 21.1632,16.6135005 C21.11136,17.7682571 20.92128,18.3952919 20.76192,18.8110432 C20.54976,19.3640801 20.29632,19.7574373 19.88832,20.172215 C19.48128,20.586019 19.09152,20.8420906 18.5472,21.0572687 C18.13632,21.2188957 17.51904,21.4116797 16.38048,21.4642571 C15.15072,21.5217028 14.78208,21.5333867 11.66688,21.5333867 C8.55168,21.5333867 8.18208,21.5217028 6.95232,21.4642571 C5.81472,21.4116797 5.19744,21.2188957 4.7856,21.0572687 C4.24128,20.8420906 3.85248,20.586019 3.44448,20.172215 C3.03648,19.7574373 2.78304,19.3640801 2.57184,18.8110432 C2.41152,18.3952919 2.22144,17.7682571 2.1696,16.6135005 C2.11392,15.3662466 2.10144,14.9913888 2.10144,11.8328472 C2.10144,8.67333193 2.11392,8.29847418 2.1696,7.05122023 C2.22144,5.89841096 2.41152,5.27137619 2.57184,4.85367756 C2.78304,4.30161433 3.03648,3.90825711 3.44448,3.49347945 C3.85248,3.07967545 4.24128,2.82263014 4.7856,2.60842571 C5.19744,2.44679874 5.81472,2.2530411 6.95232,2.2014373 C8.18208,2.14399157 8.55168,2.13133404 11.66688,2.13133404" id="Fill-4"></path>
                <path d="M11.7054727,15.4455681 C9.55468353,15.4455681 7.81059251,13.6776416 7.81059251,11.4952812 C7.81059251,9.31389599 9.55468353,7.54401927 11.7054727,7.54401927 C13.8562619,7.54401927 15.6003529,9.31389599 15.6003529,11.4952812 C15.6003529,13.6776416 13.8562619,15.4455681 11.7054727,15.4455681 M11.7054727,5.40944067 C8.39131521,5.40944067 5.704992,8.13397818 5.704992,11.4952812 C5.704992,14.8565843 8.39131521,17.5801467 11.7054727,17.5801467 C15.0186688,17.5801467 17.704992,14.8565843 17.704992,11.4952812 C17.704992,8.13397818 15.0186688,5.40944067 11.7054727,5.40944067" id="Fill-7"></path>
                <path d="M19.704992,5.91707497 C19.704992,6.75675772 19.0334116,7.43789168 18.2055062,7.43789168 C17.3765724,7.43789168 16.704992,6.75675772 16.704992,5.91707497 C16.704992,5.07634913 17.3765724,4.39521517 18.2055062,4.39521517 C19.0334116,4.39521517 19.704992,5.07634913 19.704992,5.91707497" id="Fill-9"></path>
            </g>
        </g>
    </g>
</svg>