<?xml version="1.0" encoding="UTF-8"?>
<svg width="28px" height="24px" viewBox="0 0 28 24" version="1.1" xmlns="http://www.w3.org/2000/svg" xmlns:xlink="http://www.w3.org/1999/xlink">
    <!-- Generator: Sketch 53.2 (72643) - https://sketchapp.com -->
    <title>twitter_icon_white@2x</title>
    <desc>Created with Sketch.</desc>
    <g id="Symbols" stroke="none" stroke-width="1" fill="none" fill-rule="evenodd">
        <g id="header" transform="translate(-1105.000000, -28.000000)" fill="#FFFFFF">
            <path d="M1113.80566,51.618019 C1124.37263,51.618019 1130.15017,42.6449882 1130.15017,34.8628464 C1130.15017,34.6079308 1130.14548,34.354939 1130.13328,34.1019472 C1131.25557,33.270826 1132.23054,32.2338484 1133,31.0525789 C1131.96967,31.5210466 1130.86333,31.8375268 1129.70069,31.9798947 C1130.88679,31.2507398 1131.79795,30.0973667 1132.22678,28.7217842 C1131.11669,29.3961082 1129.88837,29.8876625 1128.57934,30.1521976 C1127.53118,29.0065202 1126.03824,28.2908325 1124.38577,28.2908325 C1121.21408,28.2908325 1118.64014,30.9284879 1118.64014,34.1789029 C1118.64014,34.6425608 1118.69081,35.0908276 1118.79027,35.5227412 C1114.01585,35.2764831 1109.78193,32.9322211 1106.94805,29.3691737 C1106.45541,30.2387728 1106.17015,31.2507398 1106.17015,32.3290811 C1106.17015,34.372254 1107.18452,36.1759025 1108.7272,37.2311571 C1107.78508,37.2013367 1106.9002,36.9358397 1106.1251,36.4943065 C1106.12323,36.5193171 1106.12323,36.5433658 1106.12323,36.5693383 C1106.12323,39.4215077 1108.10506,41.8032856 1110.73344,42.3429372 C1110.25018,42.4776096 1109.74252,42.5497556 1109.21797,42.5497556 C1108.84825,42.5497556 1108.48886,42.5122397 1108.13885,42.4439415 C1108.86983,44.7843558 1110.99055,46.4860379 1113.50538,46.5341352 C1111.53856,48.1136503 1109.06126,49.0553953 1106.37002,49.0553953 C1105.90646,49.0553953 1105.44948,49.0284608 1105,48.9736299 C1107.54204,50.6435678 1110.56078,51.618019 1113.80566,51.618019" id="twitter_icon_white"></path>
        </g>
    </g>
</svg>