<?xml version="1.0" encoding="UTF-8"?>
<svg width="31px" height="23px" viewBox="0 0 31 23" version="1.1" xmlns="http://www.w3.org/2000/svg" xmlns:xlink="http://www.w3.org/1999/xlink">
    <!-- Generator: Sketch 53.2 (72643) - https://sketchapp.com -->
    <title>ham_menu_icon</title>
    <desc>Created with Sketch.</desc>
    <g id="Symbols" stroke="none" stroke-width="1" fill="none" fill-rule="evenodd">
        <g id="header_mobile" transform="translate(-264.000000, -38.000000)" fill="#FFFFFF">
            <g id="header">
                <g id="ham_menu_icon" transform="translate(264.000000, 38.000000)">
                    <path d="M29.2234,13.0966 L1.1734,13.0966 C0.5254,13.0966 0.000400000001,12.5716 0.000400000001,11.9236 L0.000400000001,10.5336 C0.000400000001,9.8866 0.5254,9.3616 1.1734,9.3616 L29.2234,9.3616 C29.8704,9.3616 30.3954,9.8866 30.3954,10.5336 L30.3954,11.9236 C30.3954,12.5716 29.8704,13.0966 29.2234,13.0966" id="Fill-57" transform="translate(15.197900, 11.229100) scale(-1, -1) rotate(-180.000000) translate(-15.197900, -11.229100) "></path>
                    <path d="M29.225,3.735 L1.17,3.735 C0.524,3.735 -8.8817842e-15,3.211 -8.8817842e-15,2.565 L-8.8817842e-15,1.17 C-8.8817842e-15,0.524 0.524,-4.95159469e-14 1.17,-4.95159469e-14 L29.225,-4.95159469e-14 C29.871,-4.95159469e-14 30.395,0.524 30.395,1.17 L30.395,2.565 C30.395,3.211 29.871,3.735 29.225,3.735" id="Fill-59" transform="translate(15.197500, 1.867500) scale(-1, -1) rotate(-180.000000) translate(-15.197500, -1.867500) "></path>
                    <path d="M29.2234,22.4584 L1.1734,22.4584 C0.5254,22.4584 0.000400000001,21.9334 0.000400000001,21.2854 L0.000400000001,19.8954 C0.000400000001,19.2484 0.5254,18.7234 1.1734,18.7234 L29.2234,18.7234 C29.8704,18.7234 30.3954,19.2484 30.3954,19.8954 L30.3954,21.2854 C30.3954,21.9334 29.8704,22.4584 29.2234,22.4584" id="Fill-61" transform="translate(15.197900, 20.590900) scale(-1, -1) rotate(-180.000000) translate(-15.197900, -20.590900) "></path>
                </g>
            </g>
        </g>
    </g>
</svg>