<?xml version="1.0" encoding="UTF-8"?>
<svg width="95px" height="94px" viewBox="0 0 95 94" version="1.1" xmlns="http://www.w3.org/2000/svg" xmlns:xlink="http://www.w3.org/1999/xlink">
    <!-- Generator: Sketch 53.2 (72643) - https://sketchapp.com -->
    <title>clarity_icon@3x</title>
    <desc>Created with Sketch.</desc>
    <defs>
        <polygon id="path-1" points="0 0.1122 94.126 0.1122 94.126 94 0 94"></polygon>
    </defs>
    <g id="Page-1" stroke="none" stroke-width="1" fill="none" fill-rule="evenodd">
        <g id="06.-Life-Coaching" transform="translate(-323.000000, -1783.000000)">
            <g id="clarity" transform="translate(235.000000, 1729.000000)">
                <g id="clarity_icon" transform="translate(88.000000, 53.000000)">
                    <g id="Group-3" transform="translate(0.000000, 0.888000)">
                        <mask id="mask-2" fill="white">
                            <use xlink:href="#path-1"></use>
                        </mask>
                        <g id="Clip-2"></g>
                        <path d="M86.6832,0.1122 L58.9762,0.1122 L58.9762,5.4102 L86.6832,5.4102 C87.8622,5.4102 88.8292,6.3632 88.8292,7.5552 L88.8292,35.0632 L94.1262,35.0632 L94.1262,7.5552 C94.1262,3.4492 90.7882,0.1122 86.6832,0.1122 L86.6832,0.1122 Z M7.4302,0.1122 C3.3372,0.1122 -0.0008,3.4492 -0.0008,7.5552 L-0.0008,35.0632 L5.2972,35.0632 L5.2972,7.5552 C5.2972,6.3632 6.2512,5.4102 7.4302,5.4102 L35.1372,5.4102 L35.1372,0.1122 L7.4302,0.1122 Z M88.8292,58.9032 L88.8292,86.5562 C88.8292,87.7352 87.8622,88.7022 86.6832,88.7022 L58.9762,88.7022 L58.9762,94.0002 L86.6832,94.0002 C90.7882,94.0002 94.1262,90.6622 94.1262,86.5562 L94.1262,58.9032 L88.8292,58.9032 Z M7.4302,88.7022 C6.2512,88.7022 5.2972,87.7352 5.2972,86.5562 L5.2972,58.9032 L-0.0008,58.9032 L-0.0008,86.5562 C-0.0008,90.6622 3.3372,94.0002 7.4302,94.0002 L35.1372,94.0002 L35.1372,88.7022 L7.4302,88.7022 Z" id="Fill-1" fill="#FFFFFF" mask="url(#mask-2)"></path>
                    </g>
                    <polygon id="Fill-4" fill="#FFFFFF" points="57.652 45.2942 57.652 50.5912 49.706 50.5912 49.706 58.5382 44.408 58.5382 44.408 50.5912 36.462 50.5912 36.462 45.2942 44.408 45.2942 44.408 37.3472 49.706 37.3472 49.706 45.2942"></polygon>
                </g>
            </g>
        </g>
    </g>
</svg>