<?xml version="1.0" encoding="UTF-8"?>
<svg width="154px" height="116px" viewBox="0 0 154 116" version="1.1" xmlns="http://www.w3.org/2000/svg" xmlns:xlink="http://www.w3.org/1999/xlink">
    <!-- Generator: Sketch 53.2 (72643) - https://sketchapp.com -->
    <title>logo_blues@3x</title>
    <desc>Created with Sketch.</desc>
    <g id="Page-1" stroke="none" stroke-width="1" fill="none" fill-rule="evenodd">
        <g id="09.-Log-In-loading" transform="translate(-643.000000, -252.000000)">
            <g id="logo_blues" transform="translate(643.529503, 252.575725)">
                <polygon id="Fill-1" fill="#002150" points="-4.58300065e-13 93.274275 4.28610559 93.274275 4.28610559 71.373525 -4.58300065e-13 71.373525"></polygon>
                <polygon id="Fill-2" fill="#002150" points="19.4177944 71.37375 23.9451484 71.37375 38.615459 87.18975 38.615459 71.37375 42.7204404 71.37375 42.7204404 93.2745 38.7973348 93.2745 23.5227758 76.887 23.5227758 93.2745 19.4177944 93.2745"></polygon>
                <polygon id="Fill-3" fill="#002150" points="65.4056106 75.04935 55.5948404 75.04935 55.5948404 71.3736 79.5024863 71.3736 79.5024863 75.04935 69.6924677 75.04935 69.6924677 93.27435 65.4056106 93.27435"></polygon>
                <path d="M104.932929,81.10395 C108.435165,81.10395 110.215593,80.5917 110.215593,78.0012 C110.215593,75.4407 108.435165,74.9292 104.932929,74.9292 L96.6620901,74.9292 L96.6620901,81.10395 L104.932929,81.10395 Z M92.3759845,71.37345 L105.567239,71.37345 C110.759717,71.37345 114.50245,72.5487 114.50245,77.91045 C114.50245,81.9477 111.604463,84.1767 108.37504,84.35745 L115.106699,93.2742 L109.823283,93.2742 L103.453873,84.6582 L96.6620901,84.6582 L96.6620901,93.2742 L92.3759845,93.2742 L92.3759845,71.37345 Z" id="Fill-4" fill="#002150"></path>
                <path d="M144.371488,84.56865 L139.783258,74.80815 L135.195029,84.56865 L144.371488,84.56865 Z M137.338457,71.3739 L142.22806,71.3739 L152.883575,93.2739 L148.356221,93.2739 L146.06173,88.2429 L133.413097,88.2429 L131.089296,93.2739 L126.531128,93.2739 L137.338457,71.3739 Z" id="Fill-6" fill="#002150"></path>
                <polygon id="Fill-8" fill="#00A7ED" points="31.0569422 106.221225 38.6814453 106.221225 38.6814453 107.608725 32.6750354 107.608725 32.6750354 109.530975 37.8382031 109.530975 37.8382031 110.917725 32.6750354 110.917725 32.6750354 114.488475 31.0569422 114.488475"></polygon>
                <polygon id="Fill-10" fill="#00A7ED" points="45.260764 114.488775 46.8788571 114.488775 46.8788571 106.221525 45.260764 106.221525"></polygon>
                <polygon id="Fill-12" fill="#00A7ED" points="57.1307888 107.608425 53.4263851 107.608425 53.4263851 106.220925 62.4525342 106.220925 62.4525342 107.608425 58.7481304 107.608425 58.7481304 114.488925 57.1307888 114.488925"></polygon>
                <polygon id="Fill-13" fill="#00A7ED" points="68.8932665 106.221225 70.6030491 106.221225 76.1412416 112.191225 76.1412416 106.221225 77.691695 106.221225 77.691695 114.488475 76.2103845 114.488475 70.4437199 108.301725 70.4437199 114.488475 68.8932665 114.488475"></polygon>
                <polygon id="Fill-14" fill="#00A7ED" points="84.8850323 106.221225 92.3156348 106.221225 92.3156348 107.608725 86.5031255 107.608725 86.5031255 109.530975 91.506964 109.530975 91.506964 110.917725 86.5031255 110.917725 86.5031255 113.100975 92.4524174 113.100975 92.4524174 114.488475 84.8850323 114.488475"></polygon>
                <path d="M105.436093,108.734175 C105.173801,107.994675 104.501913,107.358675 102.53059,107.358675 C101.436329,107.358675 100.330795,107.630925 100.330795,108.392925 C100.330795,108.745425 100.535969,109.120425 102.188634,109.325925 L104.148683,109.621425 C106.00577,109.905675 107.100031,110.622675 107.100031,112.009425 C107.100031,113.965425 105.231671,114.692925 103.020602,114.692925 C99.4650062,114.692925 98.5984658,112.942425 98.4045652,112.316175 L99.9662919,111.827175 C100.262404,112.430925 100.877925,113.306175 103.065696,113.306175 C104.387677,113.306175 105.481938,112.874175 105.481938,112.157175 C105.481938,111.623175 104.866416,111.269925 103.681217,111.122925 L101.69787,110.849175 C99.7836646,110.588175 98.7127019,109.757925 98.7127019,108.495675 C98.7127019,106.016175 101.937615,106.016175 102.575683,106.016175 C106.142553,106.016175 106.758075,107.664675 106.963248,108.233925 L105.436093,108.734175 Z" id="Fill-15" fill="#00A7ED"></path>
                <path d="M120.163296,108.734175 C119.900253,107.994675 119.228365,107.358675 117.257042,107.358675 C116.163532,107.358675 115.057998,107.630925 115.057998,108.392925 C115.057998,108.745425 115.26242,109.120425 116.915085,109.325925 L118.875886,109.621425 C120.732973,109.905675 121.826483,110.622675 121.826483,112.009425 C121.826483,113.965425 119.958122,114.692925 117.747054,114.692925 C114.191458,114.692925 113.324917,112.942425 113.131768,112.316175 L114.693495,111.827175 C114.988855,112.430925 115.605129,113.306175 117.792899,113.306175 C119.114129,113.306175 120.208389,112.874175 120.208389,112.157175 C120.208389,111.623175 119.593619,111.269925 118.407669,111.122925 L116.425073,110.849175 C114.510868,110.588175 113.439153,109.757925 113.439153,108.495675 C113.439153,106.016175 116.664818,106.016175 117.302135,106.016175 C120.869756,106.016175 121.484526,107.664675 121.6897,108.233925 L120.163296,108.734175 Z" id="Fill-16" fill="#00A7ED"></path>
                <path d="M60.4324354,7.75665 C59.6763733,7.75665 59.2983422,7.3809 59.2983422,6.62565 L59.2983422,1.13115 C59.2983422,0.3774 59.6763733,0.00015 60.4324354,0.00015 L75.1681311,0.00015 C75.9249447,0.00015 76.3014727,0.3774 76.3014727,1.13115 L76.3014727,50.9034 C76.3014727,51.65715 75.9249447,52.03515 75.1681311,52.03515 L60.4324354,52.03515 C59.6763733,52.03515 59.2983422,51.65715 59.2983422,50.9034 L59.2983422,45.4089 C59.2983422,44.6544 59.6763733,44.27715 60.4324354,44.27715 L68.2049944,44.27715 L68.2049944,7.75665 L60.4324354,7.75665 Z" id="Fill-17" fill="#00A7ED"></path>
                <path d="M94.950654,44.27775 C95.7067161,44.27775 96.0847472,44.65425 96.0847472,45.40875 L96.0847472,50.90325 C96.0847472,51.657 95.7067161,52.035 94.950654,52.035 L80.2149584,52.035 C79.4581447,52.035 79.0816168,51.657 79.0816168,50.90325 L79.0816168,1.131 C79.0816168,0.37725 79.4581447,1.56319402e-13 80.2149584,1.56319402e-13 L94.950654,1.56319402e-13 C95.7067161,1.56319402e-13 96.0847472,0.37725 96.0847472,1.131 L96.0847472,6.6255 C96.0847472,7.38075 95.7067161,7.75725 94.950654,7.75725 L87.178095,7.75725 L87.178095,44.27775 L94.950654,44.27775 Z" id="Fill-18" fill="#00A7ED"></path>
            </g>
        </g>
    </g>
</svg>