<?xml version="1.0" encoding="UTF-8"?>
<svg width="29px" height="29px" viewBox="0 0 29 29" version="1.1" xmlns="http://www.w3.org/2000/svg" xmlns:xlink="http://www.w3.org/1999/xlink">
    <!-- Generator: Sketch 53.2 (72643) - https://sketchapp.com -->
    <title>facebook_icon_dark</title>
    <desc>Created with Sketch.</desc>
    <g id="Symbols" stroke="none" stroke-width="1" fill="none" fill-rule="evenodd">
        <g id="footer" transform="translate(-939.000000, -134.000000)" fill="#617C9C">
            <path d="M965.638472,134.805272 L940.555792,134.805272 C939.697392,134.805272 939.000232,135.502432 939.000232,136.361992 L939.000232,161.443512 C939.000232,162.303072 939.697392,163.000232 940.555792,163.000232 L954.060512,163.000232 L954.060512,152.082312 L950.385632,152.082312 L950.385632,147.827432 L954.060512,147.827432 L954.060512,144.688472 C954.060512,141.047232 956.284232,139.063632 959.532232,139.063632 C961.088952,139.063632 962.425272,139.179632 962.815032,139.230672 L962.815032,143.037792 L960.562312,143.038952 C958.796792,143.038952 958.454592,143.877632 958.454592,145.109552 L958.454592,147.827432 L962.666552,147.827432 L962.119032,152.082312 L958.454592,152.082312 L958.454592,163.000232 L965.638472,163.000232 C966.498032,163.000232 967.195192,162.303072 967.195192,161.443512 L967.195192,136.361992 C967.195192,135.502432 966.498032,134.805272 965.638472,134.805272" id="facebook_icon_dark"></path>
        </g>
    </g>
</svg>