<?xml version="1.0" encoding="UTF-8"?>
<svg width="29px" height="29px" viewBox="0 0 29 29" version="1.1" xmlns="http://www.w3.org/2000/svg" xmlns:xlink="http://www.w3.org/1999/xlink">
    <!-- Generator: Sketch 53.2 (72643) - https://sketchapp.com -->
    <title>instagram_icon_dark@3x</title>
    <desc>Created with Sketch.</desc>
    <defs>
        <polygon id="path-1" points="0.356468 0.805272 28.550268 0.805272 28.550268 29 0.356468 29"></polygon>
    </defs>
    <g id="Symbols" stroke="none" stroke-width="1" fill="none" fill-rule="evenodd">
        <g id="footer" transform="translate(-999.000000, -134.000000)">
            <g id="instagram_icon_dark" transform="translate(999.000000, 134.000000)">
                <g id="Group-6">
                    <mask id="mask-2" fill="white">
                        <use xlink:href="#path-1"></use>
                    </mask>
                    <g id="Clip-5"></g>
                    <path d="M14.453948,0.805272 C10.624788,0.805272 10.144548,0.821512 8.641188,0.889952 C7.140148,0.958392 6.117028,1.197352 5.219188,1.545352 C4.292348,1.904952 3.505868,2.387512 2.722868,3.171672 C1.938708,3.955832 1.457308,4.742312 1.096548,5.667992 C0.748548,6.565832 0.509588,7.590112 0.441148,9.091152 C0.372708,10.593352 0.356468,11.074752 0.356468,14.902752 C0.356468,18.730752 0.372708,19.210992 0.441148,20.714352 C0.509588,22.215392 0.748548,23.240832 1.096548,24.136352 C1.457308,25.064352 1.938708,25.850832 2.722868,26.633832 C3.505868,27.416832 4.292348,27.899392 5.219188,28.260152 C6.117028,28.608152 7.140148,28.847112 8.641188,28.914392 C10.144548,28.983992 10.624788,29.000232 14.453948,29.000232 C18.281948,29.000232 18.762188,28.983992 20.266708,28.914392 C21.766588,28.847112 22.790868,28.608152 23.687548,28.260152 C24.615548,27.899392 25.402028,27.416832 26.185028,26.633832 C26.968028,25.850832 27.450588,25.064352 27.811348,24.136352 C28.159348,23.240832 28.398308,22.215392 28.465588,20.714352 C28.535188,19.210992 28.550268,18.730752 28.550268,14.902752 C28.550268,11.074752 28.535188,10.593352 28.465588,9.091152 C28.398308,7.590112 28.159348,6.565832 27.811348,5.667992 C27.450588,4.742312 26.968028,3.955832 26.185028,3.171672 C25.402028,2.387512 24.615548,1.904952 23.687548,1.545352 C22.790868,1.197352 21.766588,0.958392 20.266708,0.889952 C18.762188,0.821512 18.281948,0.805272 14.453948,0.805272 M14.453948,3.344512 C18.218148,3.344512 18.663588,3.359592 20.149548,3.428032 C21.525308,3.489512 22.271188,3.720352 22.767668,3.912912 C23.425388,4.168112 23.896348,4.474352 24.388188,4.967352 C24.881188,5.461512 25.187428,5.930152 25.443788,6.587872 C25.636348,7.085512 25.866028,7.832552 25.928668,9.205992 C25.995948,10.691952 26.011028,11.138552 26.011028,14.902752 C26.011028,18.665792 25.995948,19.112392 25.928668,20.598352 C25.866028,21.974112 25.636348,22.721152 25.443788,23.216472 C25.187428,23.875352 24.881188,24.343992 24.388188,24.838152 C23.896348,25.331152 23.425388,25.636232 22.767668,25.892592 C22.271188,26.085152 21.525308,26.314832 20.149548,26.377472 C18.663588,26.445912 18.218148,26.459832 14.453948,26.459832 C10.689748,26.459832 10.243148,26.445912 8.757188,26.377472 C7.382588,26.314832 6.636708,26.085152 6.139068,25.892592 C5.481348,25.636232 5.011548,25.331152 4.518548,24.838152 C4.025548,24.343992 3.719308,23.875352 3.464108,23.216472 C3.270388,22.721152 3.040708,21.974112 2.978068,20.598352 C2.910788,19.112392 2.895708,18.665792 2.895708,14.902752 C2.895708,11.138552 2.910788,10.691952 2.978068,9.205992 C3.040708,7.832552 3.270388,7.085512 3.464108,6.587872 C3.719308,5.930152 4.025548,5.461512 4.518548,4.967352 C5.011548,4.474352 5.481348,4.168112 6.139068,3.912912 C6.636708,3.720352 7.382588,3.489512 8.757188,3.428032 C10.243148,3.359592 10.689748,3.344512 14.453948,3.344512" id="Fill-4" fill="#617C9C" mask="url(#mask-2)"></path>
                </g>
                <path d="M14.0005609,19.3692012 C11.4913068,19.3692012 9.45653393,17.1902892 9.45653393,14.5006009 C9.45653393,11.8121144 11.4913068,9.63079881 14.0005609,9.63079881 C16.5098149,9.63079881 18.5445878,11.8121144 18.5445878,14.5006009 C18.5445878,17.1902892 16.5098149,19.3692012 14.0005609,19.3692012 M14.0005609,7 C10.1340437,7 7,10.357904 7,14.5006009 C7,18.6432978 10.1340437,22 14.0005609,22 C17.8659563,22 21,18.6432978 21,14.5006009 C21,10.357904 17.8659563,7 14.0005609,7" id="Fill-7" fill="#617C9C"></path>
                <path d="M24,8.00068564 C24,9.10455948 23.1045595,10 22.0006856,10 C20.8954405,10 20,9.10455948 20,8.00068564 C20,6.89544052 20.8954405,6 22.0006856,6 C23.1045595,6 24,6.89544052 24,8.00068564" id="Fill-9" fill="#617C9C"></path>
            </g>
        </g>
    </g>
</svg>