<?xml version="1.0" encoding="UTF-8"?>
<svg width="214px" height="159px" viewBox="0 0 214 159" version="1.1" xmlns="http://www.w3.org/2000/svg" xmlns:xlink="http://www.w3.org/1999/xlink">
    <!-- Generator: Sketch 53.2 (72643) - https://sketchapp.com -->
    <title>logo_footer_large_dark@3x</title>
    <desc>Created with Sketch.</desc>
    <g id="Symbols" stroke="none" stroke-width="1" fill="none" fill-rule="evenodd">
        <g id="footer" transform="translate(-120.000000, -146.000000)" fill="#617C9C">
            <g id="logo_footer_large" transform="translate(0.000000, 91.000000)">
                <g id="logo_footer_large_dark" transform="translate(120.000000, 55.000000)">
                    <polygon id="Fill-4" points="0 131 4 131 4 99 0 99"></polygon>
                    <polygon id="Fill-6" points="53.0068565 99 53.0068565 122.119114 31.6115608 99 25 99 25 131 30.9931435 131 30.9931435 107.06029 53.2691172 131 59 131 59 99"></polygon>
                    <polygon id="Fill-7" points="78 99 78 104.373527 91.9575791 104.373527 91.9575791 131 98.056623 131 98.056623 104.373527 112 104.373527 112 99"></polygon>
                    <path d="M135.035437,113.223661 L135.035437,104.2052 L146.676771,104.2052 C151.60946,104.2052 154.113291,104.946487 154.113291,108.68206 C154.113291,112.466188 151.60946,113.223661 146.676771,113.223661 L135.035437,113.223661 Z M151.520428,117.980527 C156.065749,117.716706 160.15029,114.46022 160.15029,108.559051 C160.15029,100.714026 154.873969,99 147.570215,99 L129,99 L129,131 L135.035437,131 L135.035437,118.412675 L144.589984,118.412675 L153.561917,131 L161,131 L151.520428,117.980527 Z" id="Fill-8"></path>
                    <path d="M189.832253,118.288691 L196.109137,104.020433 L202.370863,118.288691 L189.832253,118.288691 Z M199.449937,99 L192.768337,99 L178,131 L184.234442,131 L187.400926,123.648999 L204.685474,123.648999 L207.809516,131 L214,131 L199.449937,99 Z" id="Fill-9"></path>
                    <polygon id="Fill-10" points="53 149.854925 53 148 42 148 42 159 44.3377001 159 44.3377001 154.250803 51.792722 154.250803 51.792722 152.4106 44.3377001 152.4106 44.3377001 149.854925"></polygon>
                    <polygon id="Fill-11" points="64 159 65 159 65 148 64 148"></polygon>
                    <polygon id="Fill-12" points="75 148 75 149.854925 79.9151292 149.854925 79.9151292 159 82.0701107 159 82.0701107 149.854925 87 149.854925 87 148"></polygon>
                    <polygon id="Fill-13" points="107.878169 148 107.878169 155.937901 100.339765 148 98 148 98 159 100.10821 159 100.10821 150.767666 107.978055 159 110 159 110 148"></polygon>
                    <polygon id="Fill-14" points="119.353803 157.145075 119.353803 154.250803 126.615125 154.250803 126.615125 152.4106 119.353803 152.4106 119.353803 149.854925 127.800088 149.854925 127.800088 148 117 148 117 159 128 159 128 157.145075"></polygon>
                    <path d="M144.92239,152.567654 L142.217258,152.19275 C139.937963,151.938601 139.645392,151.456982 139.645392,151.01468 C139.645392,150.050038 141.18024,149.701813 142.685984,149.701813 C145.40337,149.701813 146.33929,150.504978 146.705387,151.442941 L148.810059,150.813888 C148.517488,150.089354 147.668879,148 142.744192,148 C141.866479,148 137.422773,148 137.422773,151.148073 C137.422773,152.743171 138.899413,153.801889 141.544805,154.122032 L144.27904,154.470258 C145.914986,154.658412 146.763595,155.100715 146.763595,155.784529 C146.763595,156.694409 145.25785,157.24483 143.430431,157.24483 C140.405157,157.24483 139.55808,156.131351 139.147562,155.368905 L137,155.98532 C137.263467,156.774445 138.461322,159 143.358438,159 C146.412816,159 149,158.074674 149,155.596375 C149,153.841205 147.478938,152.929921 144.92239,152.567654" id="Fill-15"></path>
                    <path d="M165.937707,152.567654 L163.21879,152.19275 C160.937963,151.938601 160.66071,151.456982 160.66071,151.01468 C160.66071,150.050038 162.18024,149.701813 163.701302,149.701813 C166.42022,149.701813 167.340822,150.504978 167.705387,151.442941 L169.810059,150.813888 C169.532806,150.089354 168.685729,148 163.75951,148 C162.881797,148 158.424304,148 158.424304,151.148073 C158.424304,152.743171 159.900945,153.801889 162.546336,154.122032 L165.27904,154.470258 C166.916518,154.658412 167.763595,155.100715 167.763595,155.784529 C167.763595,156.694409 166.259382,157.24483 164.431963,157.24483 C161.420475,157.24483 160.573398,156.131351 160.164412,155.368905 L158,155.98532 C158.263467,156.774445 159.461322,159 164.373755,159 C167.428134,159 170,158.074674 170,155.596375 C170,153.841205 168.494256,152.929921 165.937707,152.567654" id="Fill-16"></path>
                    <path d="M104.40094,0 L83.5990603,0 C82.5371966,0 82,0.527247956 82,1.5648842 L82,9.16859673 C82,10.2077657 82.5371966,10.7350136 83.5990603,10.7350136 L94.56852,10.7350136 L94.56852,61.2649864 L83.5990603,61.2649864 C82.5371966,61.2649864 82,61.7907016 82,62.8283379 L82,70.4351158 C82,71.488079 82.5371966,72 83.5990603,72 L104.40094,72 C105.462803,72 106,71.488079 106,70.4351158 L106,1.5648842 C106,0.527247956 105.462803,0 104.40094,0" id="Fill-17"></path>
                    <path d="M133.385383,10.7350136 C134.461272,10.7350136 135,10.2077657 135,9.17012943 L135,1.56641689 C135,0.527247956 134.461272,0 133.385383,0 L112.598956,0 C111.538728,0 111,0.527247956 111,1.56641689 L111,70.4351158 C111,71.488079 111.538728,72 112.598956,72 L133.385383,72 C134.461272,72 135,71.488079 135,70.4351158 L135,62.8283379 C135,61.7922343 134.461272,61.2649864 133.385383,61.2649864 L122.4323,61.2649864 L122.4323,10.7350136 L133.385383,10.7350136 Z" id="Fill-18"></path>
                </g>
            </g>
        </g>
    </g>
</svg>