<?xml version="1.0" encoding="UTF-8"?>
<svg width="34px" height="28px" viewBox="0 0 34 28" version="1.1" xmlns="http://www.w3.org/2000/svg" xmlns:xlink="http://www.w3.org/1999/xlink">
    <!-- Generator: Sketch 53.2 (72643) - https://sketchapp.com -->
    <title>twitter_icon_dark@2x</title>
    <desc>Created with Sketch.</desc>
    <g id="Symbols" stroke="none" stroke-width="1" fill="none" fill-rule="evenodd">
        <g id="footer" transform="translate(-1057.000000, -136.000000)" fill="#617C9C">
            <path d="M1067.69258,164 C1080.52391,164 1087.5395,153.229526 1087.5395,143.888495 C1087.5395,143.582515 1087.5338,143.278845 1087.51899,142.975175 C1088.88177,141.977567 1090.06565,140.732866 1091,139.314969 C1089.74889,139.877278 1088.40548,140.257155 1086.9937,140.428041 C1088.43396,139.552825 1089.54037,138.168412 1090.06109,136.517278 C1088.71313,137.32668 1087.22159,137.916701 1085.63206,138.234227 C1084.35929,136.859052 1082.54643,136 1080.53986,136 C1076.68853,136 1073.56302,139.166021 1073.56302,143.067546 C1073.56302,143.624082 1073.62455,144.162144 1073.74533,144.680577 C1067.94782,144.38499 1062.80663,141.571134 1059.36549,137.294351 C1058.76728,138.338144 1058.42089,139.552825 1058.42089,140.847175 C1058.42089,143.299629 1059.65264,145.464577 1061.52589,146.731216 C1060.38188,146.695423 1059.30738,146.376742 1058.3662,145.846763 C1058.36392,145.876784 1058.36392,145.905649 1058.36392,145.936825 C1058.36392,149.36033 1060.77043,152.219216 1063.96203,152.866969 C1063.37521,153.028619 1062.75877,153.115216 1062.12182,153.115216 C1061.67288,153.115216 1061.23647,153.070186 1060.81145,152.988206 C1061.69909,155.797443 1064.27424,157.84 1067.32796,157.897732 C1064.93968,159.793649 1061.93153,160.924041 1058.66359,160.924041 C1058.10071,160.924041 1057.5458,160.891711 1057,160.825897 C1060.08677,162.830351 1063.75237,164 1067.69258,164" id="twitter_icon_dark"></path>
        </g>
    </g>
</svg>