<svg height="230" viewBox="0 0 349 230" width="349" xmlns="http://www.w3.org/2000/svg" xmlns:xlink="http://www.w3.org/1999/xlink"><defs><filter id="a" height="214.5%" width="186.6%" x="-43.3%" y="-55.9%"><feOffset dx="0" dy="2" in="SourceAlpha" result="shadowOffsetOuter1"/><feGaussianBlur in="shadowOffsetOuter1" result="shadowBlurOuter1" stdDeviation="2"/><feColorMatrix in="shadowBlurOuter1" result="shadowMatrixOuter1" type="matrix" values="0 0 0 0 0   0 0 0 0 0   0 0 0 0 0  0 0 0 0.5 0"/><feMerge><feMergeNode in="shadowMatrixOuter1"/><feMergeNode in="SourceGraphic"/></feMerge></filter><path id="b" d="m201 0v80.8405116 67.5050904c0 2.019316-1.639113 3.654398-3.661069 3.654398h-24.029163-145.3559386-24.29276059c-2.021956 0-3.66106881-1.635082-3.66106881-3.654398v-148.345602z"/><filter id="c" height="249.3%" width="212.9%" x="-56.5%" y="-73.4%"><feMorphology in="SourceAlpha" operator="erode" radius="12.5" result="shadowSpreadOuter1"/><feOffset dx="0" dy="2" in="shadowSpreadOuter1" result="shadowOffsetOuter1"/><feGaussianBlur in="shadowOffsetOuter1" result="shadowBlurOuter1" stdDeviation="50"/><feColorMatrix in="shadowBlurOuter1" type="matrix" values="0 0 0 0 0   0 0 0 0 0.654901961   0 0 0 0 0.929411765  0 0 0 1 0"/></filter></defs><g fill="none" fill-rule="evenodd" filter="url(#a)" transform="translate(74)"><use fill="#000" filter="url(#c)" xlink:href="#b"/><use fill="#002150" fill-rule="evenodd" xlink:href="#b"/><g fill="#fff"><path d="m28 111h3v-21h-3z"/><path d="m65.1220836 90v15.171918l-13.8440148-15.171918h-4.2780688v21h3.8779164v-15.7104345l14.4138653 15.7104345h3.7082183v-21z"/><path d="m81 90v3.526377h9.0313747v17.473623h3.9464402v-17.473623h9.0221851v-3.526377z"/><path d="m119.960756 99.3342775v-5.9183653h7.639625c3.237077 0 4.880216.4864701 4.880216 2.9379394 0 2.4833342-1.643139 2.9804259-4.880216 2.9804259zm10.818275 3.1216935c2.982867-.173132 5.663347-2.310202 5.663347-6.1828437 0-5.148298-3.462586-6.2731273-8.255674-6.2731273h-12.186704v21h3.960756v-8.260432h6.270171l5.887831 8.260432h4.881242z"/><path d="m155.888168 102.658204 4.18459-9.3635449 4.174484 9.3635449zm6.41179-12.658204h-4.4544l-9.845558 21h4.156295l2.110989-4.824095h11.523032l2.082695 4.824095h4.126989z"/><path d="m65 124.349036v-1.349036h-7v8h1.4876274v-3.453961h4.7441048v-1.33833h-4.7441048v-1.858673z"/><path d="m72 131h1v-8h-1z"/><path d="m79 123v1.349036h3.2767528v6.650964h1.4366543v-6.650964h3.2865929v-1.349036z"/><path d="m100.585446 123v5.773019l-5.0256024-5.773019h-1.5598436v8h1.4054736v-5.987152l5.2465634 5.987152h1.347963v-8z"/><path d="m109.497875 129.650964v-2.104925h4.620841v-1.33833h-4.620841v-1.858673h5.374908v-1.349036h-6.872783v8h7v-1.349036z"/><path d="m126.281593 126.32193-1.803421-.272658c-1.51953-.184835-1.714577-.535103-1.714577-.856778 0-.701557 1.023232-.954812 2.027061-.954812 1.811591 0 2.435538.58412 2.679602 1.266275l1.403114-.457493c-.195047-.526934-.760786-2.046464-4.043911-2.046464-.585141 0-3.547613 0-3.547613 2.289507 0 1.160072.984427 1.930049 2.748022 2.16288l1.822823.253255c1.090631.136839 1.65637.458514 1.65637.955834 0 .661731-1.003829 1.062037-2.222109 1.062037-2.016849 0-2.581567-.809804-2.855246-1.36431l-1.431708.448303c.175645.573908.974215 2.192494 4.238958 2.192494 2.036253 0 3.761042-.672964 3.761042-2.475364 0-1.276487-1.014041-1.939239-2.718407-2.202706"/><path d="m140.291805 126.32193-1.812612-.272658c-1.520551-.184835-1.705387-.535103-1.705387-.856778 0-.701557 1.013021-.954812 2.027062-.954812 1.812612 0 2.426347.58412 2.66939 1.266275l1.403114-.457493c-.184835-.526934-.749553-2.046464-4.033699-2.046464-.585141 0-3.556803 0-3.556803 2.289507 0 1.160072.984426 1.930049 2.748021 2.16288l1.821802.253255c1.091652.136839 1.65637.458514 1.65637.955834 0 .661731-1.002808 1.062037-2.221088 1.062037-2.007658 0-2.572376-.809804-2.845034-1.36431l-1.442941.448303c.175645.573908.974215 2.192494 4.24917 2.192494 2.036253 0 3.75083-.672964 3.75083-2.475364 0-1.276487-1.003829-1.939239-2.708195-2.202706"/><path d="m98.9339598 23h-13.8679196c-.7079092 0-1.0660402.3588215-1.0660402 1.0649906v5.1747488c0 .7072122.358131 1.0660338 1.0660402 1.0660338h7.3129731v34.3884536h-7.3129731c-.7079092 0-1.0660402.3577785-1.0660402 1.0639476v5.176835c0 .7165999.358131 1.0649906 1.0660402 1.0649906h13.8679196c.7079092 0 1.0660402-.3483907 1.0660402-1.0649906v-46.8700188c0-.7061691-.358131-1.0649906-1.0660402-1.0649906"/><path d="m118.923589 30.3057732c.717259 0 1.076411-.3588216 1.076411-1.0649907v-5.1747488c0-.7072122-.359152-1.0660337-1.076411-1.0660337h-13.857618c-.706819 0-1.065971.3588215-1.065971 1.0660337v46.8689757c0 .7165999.359152 1.0649906 1.065971 1.0649906h13.857618c.717259 0 1.076411-.3483907 1.076411-1.0649906v-5.176835c0-.705126-.359152-1.0639476-1.076411-1.0639476h-7.302056v-34.3884536z"/></g></g></svg>