<?xml version="1.0" encoding="UTF-8"?>
<svg width="88px" height="115px" viewBox="0 0 88 115" version="1.1" xmlns="http://www.w3.org/2000/svg" xmlns:xlink="http://www.w3.org/1999/xlink">
    <!-- Generator: Sketch 53.2 (72643) - https://sketchapp.com -->
    <title>purpose_icon</title>
    <desc>Created with Sketch.</desc>
    <defs>
        <polygon id="path-1" points="0 0.0003 87.6377623 0.0003 87.6377623 114.4543 0 114.4543"></polygon>
    </defs>
    <g id="Page-1" stroke="none" stroke-width="1" fill="none" fill-rule="evenodd">
        <g id="06.-Life-Coaching" transform="translate(-676.000000, -1772.000000)">
            <g id="purpose" transform="translate(585.000000, 1729.000000)">
                <g id="purpose_icon" transform="translate(91.000000, 43.000000)">
                    <mask id="mask-2" fill="white">
                        <use xlink:href="#path-1"></use>
                    </mask>
                    <g id="Clip-2"></g>
                    <path d="M15.7222,58.5583 L15.7222,12.6773 L81.3392,12.6773 L69.9172,33.7923 C69.2992,34.9373 69.2992,36.3043 69.9182,37.4453 L81.3392,58.5583 L15.7222,58.5583 Z M10.4242,109.1573 L5.2972,109.1573 L5.2972,5.2973 L10.4242,5.2973 L10.4242,11.2093 L10.4242,60.0273 L10.4242,109.1573 Z M74.9522,35.6193 L87.1712,13.0323 C87.8202,11.8333 87.7902,10.4193 87.0932,9.2483 C86.3952,8.0793 85.1662,7.3803 83.8032,7.3803 L15.7222,7.3803 L15.7222,3.7303 C15.7222,1.6733 14.0482,0.0003 11.9922,0.0003 L3.7312,0.0003 C1.6732,0.0003 -0.0008,1.6733 -0.0008,3.7303 L-0.0008,110.6303 C-0.0008,112.7403 1.7162,114.4543 3.8262,114.4543 L11.8982,114.4543 C14.0072,114.4543 15.7222,112.7403 15.7222,110.6303 L15.7222,63.8553 L83.8032,63.8553 C85.1662,63.8553 86.3952,63.1573 87.0932,61.9873 C87.7902,60.8163 87.8202,59.4023 87.1712,58.2043 L74.9522,35.6193 Z" id="Fill-1" fill="#FFFFFF" mask="url(#mask-2)"></path>
                </g>
            </g>
        </g>
    </g>
</svg>