<?xml version="1.0" encoding="UTF-8"?>
<svg width="95px" height="94px" viewBox="0 0 95 94" version="1.1" xmlns="http://www.w3.org/2000/svg" xmlns:xlink="http://www.w3.org/1999/xlink">
    <!-- Generator: Sketch 53.2 (72643) - https://sketchapp.com -->
    <title>vision_icon</title>
    <desc>Created with Sketch.</desc>
    <defs>
        <polygon id="path-1" points="0 0.9606 94.0294 0.9606 94.0294 95 0 95"></polygon>
    </defs>
    <g id="Page-1" stroke="none" stroke-width="1" fill="none" fill-rule="evenodd">
        <g id="06.-Life-Coaching" transform="translate(-1023.000000, -1783.000000)">
            <g id="vision" transform="translate(935.000000, 1729.000000)">
                <g id="vision_icon" transform="translate(88.000000, 53.000000)">
                    <path d="M66.6528,27.0558 L20.4628,49.2768 C20.0428,49.4788 20.0748,50.0878 20.5138,50.2428 L39.5598,55.0768 C39.7988,55.1618 39.9868,55.3498 40.0718,55.5888 L44.9048,74.6348 C45.0608,75.0748 45.6698,75.1068 45.8718,74.6868 L68.0928,28.4958 C68.5358,27.5768 67.5728,26.6138 66.6528,27.0558" id="Fill-1" fill="#FFFFFF"></path>
                    <g id="Group-5" transform="translate(0.000000, 0.040000)">
                        <mask id="mask-2" fill="white">
                            <use xlink:href="#path-1"></use>
                        </mask>
                        <g id="Clip-4"></g>
                        <path d="M49.6304,89.6096 L49.6304,87.1306 L44.4094,87.1306 L44.4094,89.6096 C23.4804,88.3096 6.6804,71.5196 5.3804,50.5896 L7.8694,50.5896 L7.8694,45.3706 L5.3804,45.3706 C6.6804,24.4396 23.4804,7.6496 44.4094,6.3496 L44.4094,8.8306 L49.6304,8.8306 L49.6304,6.3496 C70.5604,7.6496 87.3504,24.4396 88.6504,45.3706 L86.1694,45.3706 L86.1694,50.5896 L88.6504,50.5896 C87.3504,71.5196 70.5604,88.3096 49.6304,89.6096 M47.0204,0.9606 C21.0904,0.9606 -0.0006,22.0596 -0.0006,47.9796 C-0.0006,73.9106 21.0904,95.0006 47.0204,95.0006 C72.9404,95.0006 94.0294,73.9106 94.0294,47.9796 C94.0294,22.0596 72.9404,0.9606 47.0204,0.9606" id="Fill-3" fill="#FFFFFF" mask="url(#mask-2)"></path>
                    </g>
                </g>
            </g>
        </g>
    </g>
</svg>