<?xml version="1.0" encoding="UTF-8"?>
<svg width="147px" height="147px" viewBox="0 0 147 147" version="1.1" xmlns="http://www.w3.org/2000/svg" xmlns:xlink="http://www.w3.org/1999/xlink">
    <!-- Generator: Sketch 53.2 (72643) - https://sketchapp.com -->
    <title>check_icon@3x</title>
    <desc>Created with Sketch.</desc>
    <defs>
        <polygon id="path-1" points="0 0 147 0 147 147 0 147"></polygon>
    </defs>
    <g id="Page-1" stroke="none" stroke-width="1" fill="none" fill-rule="evenodd">
        <g id="04.3-Contact-Confirmation" transform="translate(-646.000000, -170.000000)">
            <g id="check_icon" transform="translate(646.000000, 170.000000)">
                <mask id="mask-2" fill="white">
                    <use xlink:href="#path-1"></use>
                </mask>
                <g id="Clip-2"></g>
                <path d="M105.720052,60.5346661 L68.3703125,94.6307954 C66.8263021,96.0344534 64.8611979,96.7362824 62.8960938,96.7362824 C60.7395833,96.7362824 58.5830729,95.8940876 57.0007813,94.2352191 L41.4585938,77.9783071 C39.0341146,75.4389621 39.1234375,71.3938749 41.6627604,68.9693747 C44.2148438,66.532114 48.2471354,66.6227137 50.684375,69.1748192 L63.1002604,82.1637601 L97.1195313,51.1173969 C99.7226563,48.7439387 103.754948,48.9225861 106.128385,51.5257337 C108.501823,54.1288813 108.323177,58.162484 105.720052,60.5346661 M73.5,0 C32.9729167,0 0,32.9719268 0,73.499362 C0,114.026797 32.9729167,147 73.5,147 C114.027083,147 147,114.026797 147,73.499362 C147,32.9719268 114.027083,0 73.5,0" id="Fill-1" fill="#00A7ED" mask="url(#mask-2)"></path>
            </g>
        </g>
    </g>
</svg>