<?xml version="1.0" standalone="no"?>
<!DOCTYPE svg PUBLIC "-//W3C//DTD SVG 1.1//EN" "http://www.w3.org/Graphics/SVG/1.1/DTD/svg11.dtd" >
<svg xmlns="http://www.w3.org/2000/svg" xmlns:xlink="http://www.w3.org/1999/xlink" version="1.1">
<metadata>
Created by FontForge 20170731 at Wed Jun  5 20:38:53 2002
 By Aleksey,,,
Copyright (c) 1989, 1990, 2002 Adobe Systems Incorporated.  All Rights Reserved. (c) 1981, 2002 Heidelberger Druckmaschinen AG. All rights reserved.
</metadata>
<defs>
<font id="TradeGothicLTStd-Obl" horiz-adv-x="500" >
  <font-face 
    font-family="Trade Gothic LT Std"
    font-weight="400"
    font-style="italic"
    font-stretch="normal"
    units-per-em="1000"
    panose-1="0 0 5 0 0 0 0 0 0 0"
    ascent="722"
    descent="-278"
    x-height="520"
    cap-height="722"
    bbox="-169 -282 1103 960"
    underline-thickness="50"
    underline-position="-200"
    slope="-12.5"
    unicode-range="U+0020-FB02"
  />
<missing-glyph horiz-adv-x="654" 
d="M154 0v700h500v-700h-500zM404 395l170 255h-340zM434 350l170 -255v510zM234 50h340l-170 255zM204 605v-510l170 255z" />
    <glyph glyph-name="fi" unicode="fi" horiz-adv-x="556" 
d="M174 0h-72l102 458h-88l13 62h88l13 59q20 88 57 120.5t104 32.5q13 0 63 -5l-14 -64q-5 1 -23 4t-27 3q-38 0 -56 -15.5t-28 -58.5l-17 -76h113l-13 -62h-113zM397 0l115 520h72l-115 -520h-72zM559 732h72l-19 -86h-72z" />
    <glyph glyph-name="fl" unicode="fl" horiz-adv-x="556" 
d="M174 0h-72l102 458h-88l13 62h88l13 59q20 88 57 120.5t104 32.5q13 0 63 -5l-14 -64q-5 1 -23 4t-27 3q-38 0 -56 -15.5t-28 -58.5l-17 -76h113l-13 -62h-113zM557 722h72l-160 -722h-72z" />
    <glyph glyph-name=".notdef" horiz-adv-x="654" 
d="M154 0v700h500v-700h-500zM404 395l170 255h-340zM434 350l170 -255v510zM234 50h340l-170 255zM204 605v-510l170 255z" />
    <glyph glyph-name=".null" horiz-adv-x="0" 
 />
    <glyph glyph-name="nonmarkingreturn" horiz-adv-x="333" 
 />
    <glyph glyph-name="space" unicode=" " horiz-adv-x="305" 
 />
    <glyph glyph-name="exclam" unicode="!" horiz-adv-x="333" 
d="M273 722h106l-130 -494h-64zM141 110h98l-24 -110h-98z" />
    <glyph glyph-name="quotedbl" unicode="&#x22;" horiz-adv-x="333" 
d="M176 452l60 270h62l-60 -270h-62zM295 452l60 270h62l-60 -270h-62z" />
    <glyph glyph-name="numbersign" unicode="#" horiz-adv-x="611" 
d="M347 438l-54 -152h135l55 152h-136zM273 230l-82 -230h-62l82 230h-99l12 56h107l54 152h-99l13 56h107l81 228h62l-81 -228h136l80 228h62l-80 -228h94l-13 -56h-102l-55 -152h95l-12 -56h-103l-82 -230h-62l82 230h-135z" />
    <glyph glyph-name="dollar" unicode="$" horiz-adv-x="611" 
d="M367 417l54 243q-59 1 -101.5 -29.5t-52.5 -80.5q-24 -107 100 -133zM414 322l-57 -260q58 3 106.5 36.5t60.5 85.5q7 31 1 55t-25.5 39.5t-38 24.5t-47.5 19zM435 722l17 77h68l-17 -77q56 -4 98 -38.5t61 -79.5l-61 -42q-15 37 -44.5 64t-67.5 34l-58 -261
q104 -36 144 -81.5t22 -127.5t-92.5 -136t-161.5 -54l-27 -124h-68l27 124q-110 2 -191 131l68 44q19 -42 55 -76t82 -37l62 279q-32 8 -59 20t-56.5 34.5t-41.5 59t-2 83.5q20 88 90 136t153 48z" />
    <glyph glyph-name="percent" unicode="%" horiz-adv-x="889" 
d="M676 62q45 0 81.5 29t46.5 75t-13.5 75t-68.5 29t-81.5 -29t-46.5 -75t13.5 -75t68.5 -29zM662 0q-70 0 -108 48t-22 118t75 118t129 48t108 -48t22 -118t-75 -118t-129 -48zM313 390q-70 0 -108 48t-22 118t75 118t129 48t108 -48t22 -118t-75 -118t-129 -48zM327 452
q45 0 81.5 29t46.5 75t-13.5 75t-68.5 29t-81.5 -29t-46.5 -75t13.5 -75t68.5 -29zM205 -10l579 742h59l-579 -742h-59z" />
    <glyph glyph-name="ampersand" unicode="&#x26;" horiz-adv-x="667" 
d="M354 585q-11 -48 13 -129q50 28 90.5 65.5t48.5 75.5q7 32 -10 52.5t-45 20.5q-37 0 -63.5 -25.5t-33.5 -59.5zM611 364l62 -16q-23 -57 -59 -117.5t-70 -97.5q17 -24 51 -42.5t55 -18.5l-16 -72h-26q-27 0 -64 21t-62 51q-95 -82 -224 -82q-88 0 -139 58t-31 149
q25 119 205 218q-16 35 -21.5 81t2.5 92q15 63 67.5 103.5t126.5 40.5q64 0 98.5 -36t20.5 -98q-7 -30 -26.5 -58.5t-51.5 -55t-56.5 -43.5t-61.5 -41q34 -99 114 -218q24 24 54 75t52 107zM167 192q-15 -64 21.5 -99t94.5 -35q85 0 159 60q-84 131 -128 242
q-61 -35 -97.5 -71.5t-49.5 -96.5z" />
    <glyph glyph-name="quotesingle" unicode="'" horiz-adv-x="222" 
d="M180 452l60 270h62l-60 -270h-62z" />
    <glyph glyph-name="parenleft" unicode="(" horiz-adv-x="333" 
d="M365 732h78q-95 -99 -151.5 -196t-82.5 -215q-45 -202 52 -405h-74q-98 184 -49 410q50 225 227 406z" />
    <glyph glyph-name="parenright" unicode=")" horiz-adv-x="333" 
d="M111 -84h-78q96 99 152 196t82 215q46 205 -52 405h74q100 -184 49 -410q-49 -225 -227 -406z" />
    <glyph glyph-name="asterisk" unicode="*" 
d="M343 544l-143 23l32 65l123 -65l7 4l11 151h67l-51 -149l6 -6l147 69l10 -67l-156 -31l-5 -8l83 -106l-63 -42l-44 134h-8l-102 -132l-43 39l129 114v7z" />
    <glyph glyph-name="plus" unicode="+" horiz-adv-x="600" 
d="M334 291l50 229h62l-50 -229h229l-14 -62h-229l-51 -229h-62l51 229h-229l14 62h229z" />
    <glyph glyph-name="comma" unicode="," horiz-adv-x="305" 
d="M225 110l-24 -110l-96 -148h-42l80 148h-40l24 110h98z" />
    <glyph glyph-name="hyphen" unicode="-" horiz-adv-x="333" 
d="M343 229h-252l14 62h252z" />
    <glyph glyph-name="period" unicode="." horiz-adv-x="305" 
d="M127 110h98l-24 -110h-98z" />
    <glyph glyph-name="slash" unicode="/" horiz-adv-x="278" 
d="M387 732h61l-398 -742h-60z" />
    <glyph glyph-name="zero" unicode="0" horiz-adv-x="611" 
d="M130 361q42 190 128.5 280.5t208.5 90.5q255 0 173 -371q-42 -190 -128.5 -280.5t-208.5 -90.5q-255 0 -173 371zM206 361q-35 -164 -7 -236.5t118 -72.5t150.5 74t96.5 235q35 164 7.5 236.5t-117.5 72.5t-151 -74t-97 -235z" />
    <glyph glyph-name="one" unicode="1" horiz-adv-x="611" 
d="M475 0h-320l14 62h125l130 587l-142 -14l10 47q120 33 150 50h72l-148 -670h123z" />
    <glyph glyph-name="two" unicode="2" horiz-adv-x="611" 
d="M549 62l-14 -62h-469l17 76q49 69 116 125.5t125.5 92t112.5 70t92 77.5t50 97q14 63 -16.5 97.5t-99.5 34.5q-72 0 -126.5 -47t-78.5 -110l-68 16q91 203 288 203q93 0 145 -51.5t33 -140.5q-14 -61 -58.5 -114t-104.5 -93.5t-121.5 -79t-122 -88t-93.5 -103.5h393z" />
    <glyph glyph-name="three" unicode="3" horiz-adv-x="611" 
d="M63 132l67 40q63 -120 172 -120q79 0 132.5 37.5t68.5 102.5q17 78 -23.5 120t-145.5 42h-71l14 62h43q206 0 236 135q12 53 -19.5 86t-85.5 33q-61 0 -102.5 -23.5t-94.5 -76.5l-50 40q115 122 260 122q97 0 142 -47.5t26 -132.5q-13 -60 -54 -100.5t-93 -59.5
q126 -54 95 -192q-20 -93 -100 -151.5t-192 -58.5q-92 0 -148 43.5t-77 98.5z" />
    <glyph glyph-name="four" unicode="4" horiz-adv-x="611" 
d="M604 170h-124l-38 -170h-72l38 170h-332l13 62l407 490h106l-109 -490h124zM510 646l-345 -414h256l92 414h-3z" />
    <glyph glyph-name="five" unicode="5" horiz-adv-x="611" 
d="M661 722l-14 -62h-310l-69 -231q78 59 161 59q96 0 149.5 -64t27.5 -180q-10 -44 -33 -86.5t-59.5 -81t-92 -62.5t-121.5 -24q-84 0 -128.5 37t-71.5 101l73 34q36 -110 143 -110q76 0 134.5 47.5t79.5 144.5q18 80 -15 131t-107 51q-104 0 -176 -109l-60 14l119 391h370
z" />
    <glyph glyph-name="six" unicode="6" horiz-adv-x="611" 
d="M665 690l-45 -61q-43 41 -113 41q-93 0 -174 -77.5t-115 -224.5q101 86 217 86q88 0 139 -61t26 -171q-24 -110 -106 -171t-178 -61q-121 0 -172 79.5t-12 254.5q39 178 142 293t244 115q54 0 93.5 -12.5t53.5 -29.5zM524 220q18 80 -17 126t-96 46q-67 0 -134.5 -46.5
t-85.5 -107.5q-15 -79 21 -132.5t112 -53.5q75 0 129 46.5t71 121.5z" />
    <glyph glyph-name="seven" unicode="7" horiz-adv-x="611" 
d="M586 660h-366l14 62h458l-10 -44l-455 -678h-84z" />
    <glyph glyph-name="eight" unicode="8" horiz-adv-x="611" 
d="M610 188q-20 -87 -100 -142.5t-207 -55.5t-183 55.5t-36 142.5q27 123 201 196l1 2q-56 23 -80 66.5t-12 99.5q20 86 95 133t178 47q104 0 158.5 -47t34.5 -133q-12 -56 -55.5 -99.5t-108.5 -66.5l-1 -2q64 -25 97 -75.5t18 -120.5zM160 188q-13 -54 26.5 -95t130.5 -41
t147.5 41t69.5 95q12 58 -30.5 94.5t-133.5 69.5q-35 -14 -57.5 -24t-52 -26t-47.5 -31.5t-33 -37t-20 -45.5zM585 556q13 56 -26.5 85t-104.5 29t-117.5 -29t-65.5 -85q-11 -52 29.5 -87t96.5 -52q70 16 123.5 53t64.5 86z" />
    <glyph glyph-name="nine" unicode="9" horiz-adv-x="611" 
d="M106 32l45 61q43 -41 114 -41q90 0 170 79t118 223q-101 -86 -217 -86q-88 0 -139 61t-26 171q24 110 106 171t178 61q121 0 172 -79.5t12 -254.5q-39 -178 -142 -293t-244 -115q-54 0 -93.5 12.5t-53.5 29.5zM247 502q-18 -80 17 -126t96 -46q64 0 121.5 37.5t92.5 96.5
q20 95 -14 150.5t-112 55.5q-75 0 -129.5 -46.5t-71.5 -121.5z" />
    <glyph glyph-name="colon" unicode=":" horiz-adv-x="305" 
d="M201 0h-98l24 110h98zM265 290h-98l25 110h98z" />
    <glyph glyph-name="semicolon" unicode=";" horiz-adv-x="305" 
d="M225 110l-24 -110l-96 -148h-42l80 148h-40l24 110h98zM265 290h-98l25 110h98z" />
    <glyph glyph-name="less" unicode="&#x3c;" horiz-adv-x="600" 
d="M568 62l-14 -62l-457 232l13 56l559 232l-13 -62l-480 -198z" />
    <glyph glyph-name="equal" unicode="=" horiz-adv-x="600" 
d="M647 393l-14 -62h-520l14 62h520zM602 189l-14 -62h-520l14 62h520z" />
    <glyph glyph-name="greater" unicode="&#x3e;" horiz-adv-x="600" 
d="M60 62l480 198l-392 198l13 62l457 -231l-13 -58l-559 -231z" />
    <glyph glyph-name="question" unicode="?" horiz-adv-x="444" 
d="M271 228h-68l12 55q11 51 44 94t66.5 69t65 62.5t40.5 75.5q8 34 -7 60t-57 26q-34 0 -62.5 -18t-60.5 -59l-53 29q75 110 187 110q67 0 105.5 -41t23.5 -111q-8 -36 -32 -69.5t-53 -60t-58 -51.5t-51.5 -55t-29.5 -60zM159 110h98l-24 -110h-98z" />
    <glyph glyph-name="at" unicode="@" horiz-adv-x="800" 
d="M338 308q-10 -45 1.5 -71.5t45.5 -26.5q65 0 128 66.5t78 132.5q10 45 -6.5 68.5t-45.5 23.5q-67 0 -126.5 -63t-74.5 -130zM642 494l33 60h67l-141 -275q-19 -40 -21 -49q-5 -25 16 -25q55 0 113 66.5t75 142.5q26 117 -39 185.5t-182 68.5q-130 0 -234 -89.5
t-134 -220.5q-29 -131 38.5 -217.5t193.5 -86.5q160 0 271 108h76q-65 -83 -162 -127.5t-199 -44.5q-155 0 -239.5 107t-50.5 261q35 157 168 265.5t286 108.5q142 0 222 -87t51 -220q-15 -69 -50.5 -126t-78.5 -90.5t-86 -51t-78 -17.5q-29 0 -45 18t-11 44l-2 -1
q-69 -61 -133 -61q-63 0 -94 46t-16 112q24 105 106.5 189t176.5 84q85 0 103 -77z" />
    <glyph glyph-name="A" unicode="A" horiz-adv-x="611" 
d="M448 666l-187 -372h219l-21 372h-11zM108 0h-84l382 722h119l62 -722h-84l-18 226h-259z" />
    <glyph glyph-name="B" unicode="B" horiz-adv-x="667" 
d="M108 0l160 722h266q92 0 135.5 -51t27.5 -127q-28 -124 -159 -166v-2q58 -15 86 -65t13 -117q-20 -88 -93.5 -141t-211.5 -53h-224zM264 344l-61 -276h150q176 0 205 130q15 68 -27.5 107t-128.5 39h-138zM333 654l-54 -242h140q84 0 134 36t62 87q13 61 -14 90t-96 29
h-172z" />
    <glyph glyph-name="C" unicode="C" horiz-adv-x="611" 
d="M551 230l69 -14q-105 -226 -304 -226q-126 0 -180.5 94t-13.5 277q39 176 133 273.5t225 97.5q193 0 198 -210l-79 -22q-3 82 -35 123t-109 41q-82 0 -151 -77t-102 -226q-33 -152 4 -227.5t131 -75.5q76 0 126.5 47t87.5 125z" />
    <glyph glyph-name="D" unicode="D" horiz-adv-x="667" 
d="M325 654l-130 -586h108q252 0 317 293q34 152 -16 222.5t-167 70.5h-112zM100 0l160 722h194q150 0 217.5 -93.5t28.5 -267.5q-36 -164 -144 -262.5t-266 -98.5h-190z" />
    <glyph glyph-name="E" unicode="E" horiz-adv-x="611" 
d="M268 722h433l-15 -68h-353l-54 -242h251l-15 -68h-251l-61 -276h373l-15 -68h-453z" />
    <glyph glyph-name="F" unicode="F" horiz-adv-x="556" 
d="M260 722h428l-15 -68h-348l-54 -242h258l-15 -68h-258l-76 -344h-80z" />
    <glyph glyph-name="G" unicode="G" horiz-adv-x="667" 
d="M421 347h243l-77 -347h-66l15 66h-2q-73 -76 -206 -76q-128 0 -184.5 94t-15.5 277t138.5 277t225.5 94q199 0 213 -212l-79 -15q-8 84 -44 121.5t-101 37.5q-42 0 -80.5 -15.5t-76 -49t-68 -94.5t-48.5 -144q-35 -161 7 -232t132 -71q85 0 139 45t69 115l14 61h-163z
" />
    <glyph glyph-name="H" unicode="H" horiz-adv-x="722" 
d="M694 722h80l-160 -722h-80l76 344h-346l-76 -344h-80l160 722h80l-69 -310h346z" />
    <glyph glyph-name="I" unicode="I" horiz-adv-x="333" 
d="M286 722h80l-160 -722h-80z" />
    <glyph glyph-name="J" unicode="J" horiz-adv-x="444" 
d="M424 722h80l-119 -536q-43 -196 -209 -196q-57 0 -91 24.5t-59 68.5l69 39q12 -29 36.5 -46.5t57.5 -17.5q88 0 112 107z" />
    <glyph glyph-name="K" unicode="K" horiz-adv-x="667" 
d="M250 242l-54 -242h-80l160 722h80l-83 -375h2l382 375h95l-284 -272l151 -450h-91l-130 384z" />
    <glyph glyph-name="L" unicode="L" horiz-adv-x="556" 
d="M530 0h-422l160 722h80l-145 -654h342z" />
    <glyph glyph-name="M" unicode="M" horiz-adv-x="833" 
d="M725 0h-72l146 660h-3l-348 -660h-62l-57 660h-3l-146 -660h-72l160 722h124l55 -584h2l310 584h126z" />
    <glyph glyph-name="N" unicode="N" horiz-adv-x="722" 
d="M180 0h-72l160 722h115l192 -556h4l123 556h72l-160 -722h-66l-223 644h-2z" />
    <glyph glyph-name="O" unicode="O" horiz-adv-x="667" 
d="M211 361q-33 -151 2.5 -227t132.5 -76t166.5 76t102.5 227t-2.5 227t-132.5 76t-166.5 -76t-102.5 -227zM131 361q39 179 134.5 275t229.5 96t186.5 -96t13.5 -275t-134.5 -275t-229.5 -96t-186.5 96t-13.5 275z" />
    <glyph glyph-name="P" unicode="P" horiz-adv-x="611" 
d="M325 654l-59 -264h136q97 0 144.5 32.5t62.5 99.5q29 132 -130 132h-154zM180 0h-80l160 722h252q111 0 154 -56t22 -146q-20 -93 -98 -145.5t-211 -52.5h-128z" />
    <glyph glyph-name="Q" unicode="Q" horiz-adv-x="667" 
d="M654 20l-17 -78q-63 0 -90.5 21.5t-48.5 73.5q-74 -47 -167 -47q-134 0 -186.5 96t-13.5 275t134.5 275t229.5 96t186.5 -96t13.5 -275q-41 -181 -135 -275q21 -66 94 -66zM397 157l17 77q48 -7 75.5 -23.5t42.5 -50.5q55 73 83 201q33 151 -2.5 227t-132.5 76
t-166.5 -76t-102.5 -227t2.5 -227t132.5 -76q70 0 126 40q-12 28 -29 41.5t-46 17.5z" />
    <glyph glyph-name="R" unicode="R" horiz-adv-x="667" 
d="M325 654l-57 -258h145q168 0 197 132q16 69 -21 97.5t-120 28.5h-144zM180 0h-80l160 722h232q116 0 167.5 -50t31.5 -140q-32 -141 -186 -188l77 -344h-87l-73 328h-169z" />
    <glyph glyph-name="S" unicode="S" horiz-adv-x="611" 
d="M643 554l-76 -16q-2 56 -37.5 91t-102.5 35q-63 0 -105 -29t-55 -83q-7 -32 9.5 -56.5t48.5 -41.5t72 -32.5t79.5 -34t70 -41.5t45 -60t4.5 -84q-20 -90 -91.5 -151t-198.5 -61q-56 0 -97 16.5t-64.5 46.5t-35.5 58.5t-20 66.5l79 26q23 -146 157 -146q77 0 126 36t62 94
q8 37 -8 65.5t-48 46.5t-72 34t-79.5 33.5t-70 39.5t-45 57.5t-4.5 81.5q18 79 90 132.5t168 53.5q86 0 138 -45t61 -133z" />
    <glyph glyph-name="T" unicode="T" horiz-adv-x="556" 
d="M679 654h-216l-145 -654h-80l145 654h-216l15 68h512z" />
    <glyph glyph-name="U" unicode="U" horiz-adv-x="722" 
d="M268 722h80l-113 -510q-15 -66 21 -110t118 -44q81 0 136.5 44t70.5 110l113 510h80l-112 -504q-24 -106 -106.5 -167t-196.5 -61t-170.5 61t-32.5 167z" />
    <glyph glyph-name="V" unicode="V" horiz-adv-x="556" 
d="M241 0l-63 722h80l47 -592h2l310 592h81l-384 -722h-73z" />
    <glyph glyph-name="W" unicode="W" horiz-adv-x="833" 
d="M202 0l-14 722h76l6 -576h2l268 576h71l16 -576h2l260 576h76l-331 -722h-71l-19 584h-2l-269 -584h-71z" />
    <glyph glyph-name="X" unicode="X" horiz-adv-x="556" 
d="M342 298l-236 -298h-92l300 377l-126 345h92l96 -265l211 265h92l-273 -345l136 -377h-92z" />
    <glyph glyph-name="Y" unicode="Y" horiz-adv-x="556" 
d="M238 0l67 304l-129 418h88l101 -331l247 331h88l-315 -418l-67 -304h-80z" />
    <glyph glyph-name="Z" unicode="Z" horiz-adv-x="556" 
d="M526 68l-15 -68h-466l13 58l494 596h-329l15 68h429l-11 -52l-502 -602h372z" />
    <glyph glyph-name="bracketleft" unicode="[" horiz-adv-x="333" 
d="M60 -74l176 796h204l-9 -42h-132l-158 -712h132l-9 -42h-204z" />
    <glyph glyph-name="backslash" unicode="\" horiz-adv-x="278" 
d="M154 732h61l69 -742h-60z" />
    <glyph glyph-name="bracketright" unicode="]" horiz-adv-x="333" 
d="M417 722l-176 -796h-204l9 42h132l158 712h-132l9 42h204z" />
    <glyph glyph-name="asciicircum" unicode="^" horiz-adv-x="600" 
d="M173 279h-64l322 443h58l126 -443h-63l-108 375z" />
    <glyph glyph-name="underscore" unicode="_" 
d="M472 -125h-500l11 50h500z" />
    <glyph glyph-name="grave" unicode="`" horiz-adv-x="278" 
d="M166 722h109l58 -142h-67z" />
    <glyph glyph-name="a" unicode="a" 
d="M206 387l-56 33q84 110 219 110q75 0 119 -38.5t27 -117.5l-58 -262q-15 -65 -13 -112h-74l8 72q-92 -82 -190 -82q-64 0 -98 37.5t-19 105.5q19 85 102 133t263 79l7 28q21 95 -86 95q-54 0 -92.5 -24.5t-58.5 -56.5zM391 138l31 143q-256 -43 -279 -149q-7 -34 15 -57
t54 -23q38 0 88 24.5t91 61.5z" />
    <glyph glyph-name="b" unicode="b" horiz-adv-x="556" 
d="M248 722h72l-56 -252l5 2q83 58 149 58q35 0 66.5 -14t58 -45.5t33 -83t-7.5 -127.5q-16 -74 -48.5 -129t-71.5 -84.5t-77.5 -43t-75.5 -13.5q-79 0 -136 65l-25 -55h-50q12 32 29 114zM248 396l-61 -274q31 -38 56.5 -54t59.5 -16q68 0 119 53t73 151q47 212 -100 212
q-67 0 -147 -72z" />
    <glyph glyph-name="c" unicode="c" 
d="M529 389l-72 -24q-10 103 -100 103q-67 0 -116 -54.5t-71 -153.5t3 -153.5t92 -54.5q50 0 86 20.5t78 75.5l52 -26q-57 -71 -107 -101.5t-123 -30.5q-98 0 -139.5 72.5t-13.5 197.5t101 197.5t171 72.5q75 0 110.5 -36.5t48.5 -104.5z" />
    <glyph glyph-name="d" unicode="d" horiz-adv-x="556" 
d="M556 722h72l-135 -608q-20 -95 -21 -114h-66l1 51q-25 -26 -65.5 -43.5t-84.5 -17.5q-37 0 -69 13t-59.5 44t-33 83t8.5 130q16 72 47.5 127t70.5 84.5t77 44t73 14.5q67 0 125 -58l3 -2zM423 122l61 274q-50 72 -115 72q-147 0 -194 -212q-22 -98 5.5 -151t96.5 -53
q34 0 66 16t80 54z" />
    <glyph glyph-name="e" unicode="e" 
d="M441 140l50 -29q-44 -56 -95.5 -88.5t-131.5 -32.5q-95 0 -145.5 68t-20.5 202q28 125 101 197.5t170 72.5q87 0 129.5 -59t16.5 -177l-10 -48h-338q-19 -84 13.5 -139t97.5 -55q95 0 163 88zM182 308h264q17 73 -6.5 116.5t-81.5 43.5q-64 0 -109 -43t-67 -117z" />
    <glyph glyph-name="f" unicode="f" horiz-adv-x="333" 
d="M187 0h-72l102 458h-88l13 62h88l13 59q20 88 57 120.5t104 32.5q13 0 63 -5l-14 -64q-5 1 -23 4t-27 3q-38 0 -56 -15.5t-28 -58.5l-17 -76h113l-13 -62h-113z" />
    <glyph glyph-name="g" unicode="g" 
d="M600 540l-16 -72q-52 0 -83 -14q26 -43 12 -106q-17 -77 -84 -129.5t-146 -52.5q-43 0 -89 14q-44 -12 -52 -48q-4 -18 5.5 -28t29.5 -10q181 0 245.5 -34t46.5 -112q-13 -61 -82.5 -100.5t-185.5 -39.5q-111 0 -160.5 31t-35.5 95q8 37 34 59.5t78 46.5
q-27 9 -40.5 29.5t-8.5 44.5q7 30 27 48t63 41q-58 53 -39 145q18 81 85 131.5t152 50.5q79 0 122 -36q64 40 122 46zM401 -55q8 39 -30.5 58t-132.5 19q-77 0 -117 -26.5t-47 -60.5q-5 -22 3.5 -35t44.5 -21.5t105 -8.5q68 0 116.5 19t57.5 56zM444 344q13 58 -13 91
t-91 33q-60 0 -100.5 -33.5t-52.5 -86.5q-11 -52 19 -86t89 -34t99 33.5t50 82.5z" />
    <glyph glyph-name="h" unicode="h" horiz-adv-x="556" 
d="M249 722h72l-60 -272h2q89 80 171 80q65 0 99.5 -37t17.5 -115l-84 -378h-72l83 376q21 92 -64 92q-37 0 -84 -24t-83 -55l-86 -389h-72z" />
    <glyph glyph-name="i" unicode="i" horiz-adv-x="278" 
d="M103 0l115 520h72l-115 -520h-72zM265 732h72l-19 -86h-72z" />
    <glyph glyph-name="j" unicode="j" horiz-adv-x="278" 
d="M232 520h72l-133 -603q-11 -48 -47 -78.5t-85 -30.5q-39 0 -57 12l13 59q18 -9 36 -9q31 0 46.5 11.5t22.5 40.5zM351 732l-19 -86h-72l19 86h72z" />
    <glyph glyph-name="k" unicode="k" 
d="M84 0l160 722h72l-103 -465h2l268 263h87l-195 -192l100 -328h-85l-79 266l-120 -110l-35 -156h-72z" />
    <glyph glyph-name="l" unicode="l" horiz-adv-x="278" 
d="M263 722h72l-160 -722h-72z" />
    <glyph glyph-name="m" unicode="m" horiz-adv-x="833" 
d="M154 0h-72l115 520h72l-15 -69l5 4q84 75 167 75q49 0 79 -22.5t36 -59.5q95 82 183 82q144 0 108 -158l-82 -372h-72l82 372q22 96 -59 96q-30 0 -62 -14t-50.5 -27t-50.5 -39l-86 -388h-72l82 372q22 96 -59 96q-30 0 -62 -14t-50.5 -27t-50.5 -39z" />
    <glyph glyph-name="n" unicode="n" horiz-adv-x="556" 
d="M204 520h72l-15 -70h2q89 80 171 80q65 0 99.5 -37t17.5 -115l-84 -378h-72l83 376q21 92 -64 92q-37 0 -84 -24t-83 -55l-86 -389h-72z" />
    <glyph glyph-name="o" unicode="o" 
d="M449 260q22 99 -4 153.5t-91 54.5q-66 0 -116 -54.5t-71 -153.5q-22 -99 4 -153.5t91 -54.5t115 54.5t72 153.5zM521 260q-27 -118 -99 -194t-174 -76q-103 0 -141.5 76t-11.5 194q26 118 98 194t174 76t141 -76t13 -194z" />
    <glyph glyph-name="p" unicode="p" horiz-adv-x="556" 
d="M117 -192h-72l158 712h72l-13 -61h2q27 30 70 50.5t80 20.5t69 -13t59.5 -44t33.5 -83t-8 -130q-16 -72 -48 -127t-71 -84.5t-77 -44t-73 -14.5q-68 0 -124 58l-4 2zM248 398l-61 -274q50 -72 116 -72q147 0 194 212q21 98 -6.5 151t-95.5 53q-34 0 -67 -16t-80 -54z" />
    <glyph glyph-name="q" unicode="q" horiz-adv-x="556" 
d="M425 -192h-72l54 242l-4 -2q-84 -58 -150 -58q-35 0 -66.5 14t-58 45.5t-32.5 83t8 127.5q16 74 48 129t71 84.5t77.5 43t75.5 13.5q89 0 124 -65l25 55h58zM423 124l61 274q-31 38 -56 54t-59 16q-68 0 -119.5 -53t-72.5 -151q-47 -212 100 -212q66 0 146 72z" />
    <glyph glyph-name="r" unicode="r" horiz-adv-x="333" 
d="M70 0l115 520h72l-23 -103h2q45 57 89 84t105 27l-16 -72q-65 -1 -113.5 -42.5t-94.5 -125.5l-64 -288h-72z" />
    <glyph glyph-name="s" unicode="s" horiz-adv-x="444" 
d="M44 89l66 43q38 -80 132 -80q55 0 89 25t42 61q7 31 -11.5 51.5t-50.5 30t-68.5 22.5t-67 27.5t-45.5 45t-4 75.5q17 66 72 103.5t131 36.5q52 -1 96.5 -26.5t61.5 -64.5l-59 -44q-23 38 -50 55.5t-68 17.5q-45 0 -74 -21t-37 -56q-7 -31 20 -50t68.5 -31.5t82 -28
t64 -50.5t11.5 -89q-16 -72 -77.5 -112t-137.5 -40q-62 0 -111.5 26t-74.5 73z" />
    <glyph glyph-name="t" unicode="t" horiz-adv-x="333" 
d="M133 520h85l38 171h72l-38 -171h120l-13 -62h-120l-82 -370q-5 -18 7.5 -27t43.5 -9q32 0 65 5l-13 -59q-28 -8 -86 -8q-60 0 -81.5 19t-10.5 67l85 382h-85z" />
    <glyph glyph-name="u" unicode="u" horiz-adv-x="556" 
d="M467 0h-72l16 70h-2q-90 -80 -172 -80q-64 0 -99 37t-18 115l84 378h72l-83 -376q-20 -92 65 -92q37 0 83.5 24t82.5 55l86 389h72z" />
    <glyph glyph-name="v" unicode="v" horiz-adv-x="444" 
d="M543 520l-271 -520h-96l-45 520h73l37 -430h2l227 430h73z" />
    <glyph glyph-name="w" unicode="w" horiz-adv-x="667" 
d="M157 0l-26 520h73l17 -400h2l190 400h73l15 -402h2l190 402h73l-254 -520h-73l-15 402h-2l-192 -402h-73z" />
    <glyph glyph-name="x" unicode="x" horiz-adv-x="444" 
d="M220 520l73 -185l150 185h81l-200 -247l108 -273h-83l-83 213l-173 -213h-81l225 273l-98 247h81z" />
    <glyph glyph-name="y" unicode="y" horiz-adv-x="444" 
d="M467 520h76l-308 -566q-81 -146 -208 -146q-11 0 -50 6l13 59q30 -3 38 -3q109 0 164 124l-65 526h76l52 -397h2z" />
    <glyph glyph-name="z" unicode="z" horiz-adv-x="444" 
d="M428 62l-14 -62h-384l12 52l374 406h-256l13 62h354l-11 -52l-374 -406h286z" />
    <glyph glyph-name="braceleft" unicode="{" horiz-adv-x="333" 
d="M115 303l9 42q63 0 80 78l44 199q24 110 117 110h62l-9 -42h-38q-46 0 -57 -56l-51 -230q-16 -68 -92 -79v-2q71 -12 56 -79l-51 -230q-13 -56 33 -56h38l-10 -42h-62q-92 0 -68 110l44 199q17 78 -45 78z" />
    <glyph glyph-name="bar" unicode="|" horiz-adv-x="439" 
d="M271 847h58v-1129h-58v1129z" />
    <glyph glyph-name="braceright" unicode="}" horiz-adv-x="333" 
d="M361 345l-9 -42q-62 0 -79 -78l-44 -199q-11 -52 -41.5 -81t-76.5 -29h-62l10 42h38q44 0 57 56l51 230q15 68 92 79v2q-72 12 -56 79l51 230q11 56 -33 56h-38l9 42h62q93 0 69 -110l-44 -199q-17 -78 44 -78z" />
    <glyph glyph-name="asciitilde" unicode="~" horiz-adv-x="600" 
d="M568 329l29 -44q-28 -29 -45 -44.5t-45.5 -30t-57.5 -14.5q-38 0 -96 34t-105 34q-52 0 -101 -73l-29 45q70 90 148 90q42 0 108 -34q68 -34 90 -34q19 0 39 12.5t31.5 23.5t33.5 35z" />
    <glyph glyph-name="uni00A0" unicode="&#xa0;" horiz-adv-x="305" 
 />
    <glyph glyph-name="exclamdown" unicode="&#xa1;" horiz-adv-x="333" 
d="M175 -202h-106l131 494h64zM307 410h-98l24 110h98z" />
    <glyph glyph-name="cent" unicode="&#xa2;" horiz-adv-x="611" 
d="M232 92l216 368q-18 8 -41 8q-67 0 -116 -54.5t-71 -153.5q-26 -116 12 -168zM486 429l-215 -369q17 -8 44 -8q50 0 86 20.5t78 75.5l52 -26q-57 -71 -107 -101.5t-123 -30.5q-40 0 -65 11l-66 -112h-57l80 136q-83 69 -45 235q28 125 101 197.5t171 72.5q38 0 64 -9
l51 89h57l-66 -113q40 -33 53 -108l-72 -24q-3 40 -21 64z" />
    <glyph glyph-name="sterling" unicode="&#xa3;" horiz-adv-x="611" 
d="M436 390l-13 -62h-144q0 -28 -9 -68q-18 -79 -58 -135q16 -9 42 -25t41 -24.5t36 -16t39 -7.5q127 0 182 128l61 -12q-68 -178 -239 -178q-24 0 -47.5 4t-38 7.5t-37 14.5t-29.5 15t-31.5 19.5t-28.5 17.5q-63 -68 -137 -78l17 78q47 8 91.5 55t59.5 114q12 59 13 91
h-107l13 62h98q6 80 15 118q23 103 94 163.5t175 60.5q182 0 185 -186l-71 -12q-12 136 -123 136q-80 0 -123.5 -42t-57.5 -104q-10 -45 -20 -134h152z" />
    <glyph glyph-name="currency" unicode="&#xa4;" horiz-adv-x="611" 
d="M343 171q80 0 144.5 52t83.5 138q19 85 -22.5 137.5t-121.5 52.5t-144.5 -52.5t-83.5 -137.5q-19 -86 22.5 -138t121.5 -52zM648 612l32 -42l-67 -55q40 -67 20 -154t-88 -154l43 -55l-52 -42l-43 56q-77 -53 -163 -53q-88 0 -139 53l-69 -56l-32 42l67 55
q-40 67 -20 154t88 154l-43 55l52 42l43 -56q77 53 163 53q88 0 139 -53z" />
    <glyph glyph-name="yen" unicode="&#xa5;" horiz-adv-x="611" 
d="M391 234l-52 -234h-68l52 234h-177l14 62h177l1 8l-24 80h-135l14 62h102l-86 276h72l107 -347l261 347h72l-208 -276h102l-14 -62h-134l-61 -80l-1 -8h177l-14 -62h-177z" />
    <glyph glyph-name="brokenbar" unicode="&#xa6;" horiz-adv-x="438" 
d="M271 762h57v-395h-57v395zM271 197h57v-393h-57v393z" />
    <glyph glyph-name="section" unicode="&#xa7;" 
d="M98 4l58 32q28 -66 87 -66q30 0 53.5 18t30.5 46q6 30 -23 80.5t-67.5 97t-68 100t-22.5 86.5q23 100 144 106q-4 7 -14 23t-12.5 22t-7 18.5t-3.5 24.5t4 28q11 46 54.5 79t98.5 33q44 0 72.5 -19t55.5 -64l-54 -27l-6 9q-6 9 -9 13t-10.5 12t-14.5 11.5t-18.5 7
t-23.5 3.5q-29 0 -50 -17t-27 -41q-4 -22 9 -45.5t78 -106.5t82 -120t7 -80q-10 -47 -46.5 -74t-86.5 -34q41 -62 27 -124q-11 -48 -55 -84t-109 -36q-50 0 -85 24t-48 64zM287 456q-25 0 -46 -16t-26 -39q-5 -21 4.5 -41t41.5 -63q6 -9 10 -14q33 -45 51 -60t40 -15
q24 0 44.5 15.5t26.5 40.5q9 40 -57 124q-34 44 -50.5 56t-38.5 12z" />
    <glyph glyph-name="dieresis" unicode="&#xa8;" horiz-adv-x="278" 
d="M393 590h-88l21 94h88zM235 590h-88l21 94h88z" />
    <glyph glyph-name="copyright" unicode="&#xa9;" horiz-adv-x="800" 
d="M594 292h68q-31 -72 -90.5 -115t-128.5 -43q-98 0 -143.5 65t-24.5 164q22 99 94.5 162.5t171.5 63.5q73 0 115 -40.5t37 -112.5h-67q1 43 -25.5 68t-72.5 25q-69 0 -116.5 -45.5t-63.5 -119.5q-16 -71 13 -120.5t95 -49.5q47 0 84.5 27t53.5 71zM104 362
q35 158 169.5 264t289.5 106q154 0 241 -106.5t52 -263.5q-35 -159 -169 -265.5t-288 -106.5q-155 0 -242.5 106.5t-52.5 265.5zM784 362q29 132 -38.5 221t-195.5 89q-129 0 -237 -89t-137 -221q-30 -135 38 -223.5t198 -88.5q129 0 235.5 88.5t136.5 223.5z" />
    <glyph glyph-name="ordfeminine" unicode="&#xaa;" horiz-adv-x="300" 
d="M208 642l-35 24q55 66 141 66q49 0 78.5 -23t18.5 -71l-34 -157q-10 -43 -7 -67h-53l2 35q-69 -41 -117 -41q-42 0 -64.5 22.5t-13.5 63.5q11 51 65 81.5t166 49.5l2 13q6 23 -8.5 35.5t-44.5 12.5q-67 0 -96 -44zM326 497l18 82q-153 -28 -167 -86q-3 -16 7.5 -27.5
t32.5 -11.5q54 0 109 43z" />
    <glyph glyph-name="guillemotleft" unicode="&#xab;" 
d="M303 418h70l-164 -158l94 -158h-68l-97 158zM443 418h70l-164 -158l94 -158h-68l-97 158z" />
    <glyph glyph-name="logicalnot" unicode="&#xac;" horiz-adv-x="600" 
d="M526 127l45 204h-458l14 62h520l-59 -266h-62z" />
    <glyph glyph-name="uni00AD" unicode="&#xad;" horiz-adv-x="333" 
d="M343 229h-252l14 62h252z" />
    <glyph glyph-name="registered" unicode="&#xae;" horiz-adv-x="800" 
d="M396 333l-41 -186h-66l94 428h164q77 0 108 -29.5t17 -92.5q-23 -104 -138 -118l81 -188h-72l-73 186h-74zM438 521l-30 -134h78q58 0 85.5 17t35.5 53q7 33 -9.5 48.5t-70.5 15.5h-89zM104 362q35 158 169.5 264t289.5 106q154 0 241 -106.5t52 -263.5
q-35 -159 -169 -265.5t-288 -106.5q-155 0 -242.5 106.5t-52.5 265.5zM784 362q29 132 -38.5 221t-195.5 89q-129 0 -237 -89t-137 -221q-30 -135 38 -223.5t198 -88.5q129 0 235.5 88.5t136.5 223.5z" />
    <glyph glyph-name="macron" unicode="&#xaf;" horiz-adv-x="278" 
d="M431 612h-312l13 60h312z" />
    <glyph glyph-name="degree" unicode="&#xb0;" horiz-adv-x="400" 
d="M186 588q14 60 65 102t111 42t92.5 -42t19.5 -102t-64.5 -102t-111.5 -42t-92.5 42t-19.5 102zM234 588q-9 -43 12.5 -71.5t61.5 -28.5t74.5 29t43.5 71q10 42 -11.5 71t-61.5 29t-74.5 -29t-44.5 -71z" />
    <glyph glyph-name="plusminus" unicode="&#xb1;" horiz-adv-x="600" 
d="M345 341l39 179h62l-39 -179h229l-14 -62h-229l-40 -179h-62l40 179h-229l14 62h229zM40 0l14 62h520l-14 -62h-520z" />
    <glyph glyph-name="twosuperior" unicode="&#xb2;" horiz-adv-x="366" 
d="M403 292h-310l12 54q37 49 92.5 88.5t98 60.5t78 50.5t43.5 64.5q8 32 -11 52t-62 20q-48 0 -83 -25.5t-54 -62.5l-43 16q27 53 77 87.5t117 34.5q64 0 95.5 -31t19.5 -85q-11 -48 -51.5 -87t-86 -61.5t-98 -56.5t-79.5 -69h256z" />
    <glyph glyph-name="threesuperior" unicode="&#xb3;" horiz-adv-x="366" 
d="M222 499l11 50h41q115 0 132 75q5 23 -14 40.5t-55 17.5q-41 0 -65.5 -11.5t-54.5 -39.5l-36 28q73 73 167 73q64 0 94 -28.5t18 -79.5q-16 -73 -86 -95v-2q38 -13 50.5 -46.5t4.5 -69.5q-12 -56 -63 -90.5t-124 -34.5q-60 0 -96.5 26t-51.5 58l47 32q34 -66 112 -66
q50 0 82 20t40 54q10 46 -14.5 67.5t-93.5 21.5h-45z" />
    <glyph glyph-name="acute" unicode="&#xb4;" horiz-adv-x="278" 
d="M323 722h109l-162 -142h-67z" />
    <glyph glyph-name="mu" unicode="&#xb5;" horiz-adv-x="556" 
d="M467 0h-72l16 70h-2q-90 -80 -172 -80q-43 0 -75 16l-44 -198h-72l158 712h72l-83 -376q-20 -92 65 -92q37 0 83.5 24t82.5 55l86 389h72z" />
    <glyph glyph-name="paragraph" unicode="&#xb6;" 
d="M200 -84l92 415q-90 0 -137 56t-29 136q21 97 91.5 148t177.5 51h277l-11 -50h-71l-168 -756h-60l168 756h-102l-168 -756h-60z" />
    <glyph glyph-name="periodcentered" unicode="&#xb7;" horiz-adv-x="305" 
d="M147 259q6 27 27.5 45t48.5 18q26 0 40 -18.5t8 -44.5q-5 -25 -27 -43t-48 -18q-27 0 -40.5 17.5t-8.5 43.5z" />
    <glyph glyph-name="cedilla" unicode="&#xb8;" horiz-adv-x="278" 
d="M127 0h48l-60 -58l2 -2q15 5 31 5q41 0 57.5 -24.5t7.5 -59.5q-10 -41 -46.5 -63t-93.5 -22q-47 0 -89 21l27 44q25 -19 62 -19q55 0 65 43q4 16 -5.5 27t-27.5 11q-26 0 -47 -8l-13 19z" />
    <glyph glyph-name="onesuperior" unicode="&#xb9;" horiz-adv-x="366" 
d="M327 732h54l-86 -390h79l-11 -50h-213l11 50h76l75 340l-88 -13l8 33q78 21 95 30z" />
    <glyph glyph-name="ordmasculine" unicode="&#xba;" horiz-adv-x="300" 
d="M197 572q-26 -116 54 -116q39 0 66.5 30t38.5 84q12 54 -1.5 84t-52.5 30q-37 0 -65.5 -30t-39.5 -82zM138 570q17 75 64 118.5t110 43.5q64 0 91.5 -43.5t10.5 -118.5q-16 -75 -63 -118.5t-111 -43.5q-63 0 -90.5 43.5t-11.5 118.5z" />
    <glyph glyph-name="guillemotright" unicode="&#xbb;" 
d="M313 418h70l95 -158l-167 -158h-68l164 158zM173 418h70l95 -158l-167 -158h-68l164 158z" />
    <glyph glyph-name="onequarter" unicode="&#xbc;" horiz-adv-x="916" 
d="M891 102h-81l-23 -102h-54l23 102h-208l10 45l248 287h77l-62 -282h81zM814 376l-194 -224h147l49 224h-2zM339 732h54l-86 -390h79l-11 -50h-213l11 50h76l75 340l-88 -13l8 33q78 21 95 30zM276 -10h-59l603 742h62z" />
    <glyph glyph-name="onehalf" unicode="&#xbd;" horiz-adv-x="916" 
d="M339 732h54l-86 -390h79l-11 -50h-213l11 50h76l75 340l-88 -13l8 33q78 21 95 30zM860 0h-310l12 54q37 49 92.5 88.5t98 60.5t78 50.5t43.5 64.5q8 32 -11 52t-62 20q-48 0 -83 -25.5t-54 -62.5l-43 16q28 53 78 87.5t117 34.5q64 0 95 -31t19 -85q-11 -48 -51.5 -87
t-86 -61.5t-98 -56.5t-79.5 -69h256zM256 -10h-59l603 742h62z" />
    <glyph glyph-name="threequarters" unicode="&#xbe;" horiz-adv-x="916" 
d="M891 102h-81l-23 -102h-54l23 102h-208l10 45l248 287h77l-62 -282h81zM814 376l-194 -224h147l49 224h-2zM258 499l11 50h41q115 0 132 75q5 23 -14 40.5t-55 17.5q-41 0 -65.5 -11.5t-54.5 -39.5l-36 28q73 73 167 73q64 0 94 -28.5t18 -79.5q-16 -73 -86 -95v-2
q38 -13 50.5 -46.5t4.5 -69.5q-12 -56 -63 -90.5t-124 -34.5q-60 0 -96.5 26t-51.5 58l47 32q34 -66 112 -66q50 0 82 20t40 54q10 46 -14.5 67.5t-93.5 21.5h-45zM292 -10h-59l603 742h62z" />
    <glyph glyph-name="questiondown" unicode="&#xbf;" horiz-adv-x="444" 
d="M289 292h68l-12 -55q-11 -51 -44.5 -94t-67 -69t-65 -62.5t-40.5 -75.5q-8 -34 7.5 -60t57.5 -26q65 0 122 77l53 -29q-75 -110 -187 -110q-67 0 -105.5 41t-22.5 111q8 36 31.5 69.5t52.5 60t58 51.5t51.5 55t29.5 60zM400 410h-98l24 110h98z" />
    <glyph glyph-name="Agrave" unicode="&#xc0;" horiz-adv-x="611" 
d="M448 666l-187 -372h219l-21 372h-11zM108 0h-84l382 722h119l62 -722h-84l-18 226h-259zM373 902h109l57 -142h-67z" />
    <glyph glyph-name="Aacute" unicode="&#xc1;" horiz-adv-x="611" 
d="M448 666l-187 -372h219l-21 372h-11zM108 0h-84l382 722h119l62 -722h-84l-18 226h-259zM530 902h109l-163 -142h-67z" />
    <glyph glyph-name="Acircumflex" unicode="&#xc2;" horiz-adv-x="611" 
d="M448 666l-187 -372h219l-21 372h-11zM108 0h-84l382 722h119l62 -722h-84l-18 226h-259zM328 760l130 142h94l68 -142h-80l-46 94l-86 -94h-80z" />
    <glyph glyph-name="Atilde" unicode="&#xc3;" horiz-adv-x="611" 
d="M448 666l-187 -372h219l-21 372h-11zM108 0h-84l382 722h119l62 -722h-84l-18 226h-259zM623 885h50q-13 -40 -48 -73.5t-73 -33.5q-24 0 -73 19q-46 19 -71 19q-15 0 -31.5 -15t-21.5 -32h-50q16 48 50.5 78.5t81.5 30.5q29 0 69 -18q38 -19 60 -19q40 0 57 44z" />
    <glyph glyph-name="Adieresis" unicode="&#xc4;" horiz-adv-x="611" 
d="M448 666l-187 -372h219l-21 372h-11zM108 0h-84l382 722h119l62 -722h-84l-18 226h-259zM600 770h-88l21 94h88zM442 770h-88l21 94h88z" />
    <glyph glyph-name="Aring" unicode="&#xc5;" horiz-adv-x="611" 
d="M448 666l-187 -372h219l-21 372h-11zM108 0h-84l382 722h119l62 -722h-84l-18 226h-259zM397 860q9 41 45 70.5t77 29.5t64 -29.5t14 -70.5q-10 -41 -46 -70.5t-77 -29.5t-64 29.5t-13 70.5zM441 860q-5 -23 7.5 -39.5t35.5 -16.5t43.5 16.5t25.5 39.5t-8 39.5t-36 16.5
t-43 -16.5t-25 -39.5z" />
    <glyph glyph-name="AE" unicode="&#xc6;" horiz-adv-x="1000" 
d="M16 0l567 722h507l-15 -68h-353l-54 -242h251l-15 -68h-251l-61 -276h373l-15 -68h-453l50 226h-266l-174 -226h-91zM335 294h227l83 372h-22z" />
    <glyph glyph-name="Ccedilla" unicode="&#xc7;" horiz-adv-x="611" 
d="M551 230l69 -14q-97 -211 -278 -225l-51 -49l2 -2q15 5 31 5q41 0 57.5 -24.5t7.5 -59.5q-10 -41 -46.5 -63t-93.5 -22q-47 0 -89 21l27 44q25 -19 62 -19q55 0 65 43q4 16 -5.5 27t-27.5 11q-26 0 -47 -8l-13 19l73 77q-115 8 -163 101.5t-9 268.5q39 176 133 273.5
t225 97.5q193 0 198 -210l-79 -22q-3 82 -35 123t-109 41q-82 0 -151 -77t-102 -226q-33 -152 4 -227.5t131 -75.5q76 0 126.5 47t87.5 125z" />
    <glyph glyph-name="Egrave" unicode="&#xc8;" horiz-adv-x="611" 
d="M268 722h433l-15 -68h-353l-54 -242h251l-15 -68h-251l-61 -276h373l-15 -68h-453zM401 902h109l57 -142h-67z" />
    <glyph glyph-name="Eacute" unicode="&#xc9;" horiz-adv-x="611" 
d="M268 722h433l-15 -68h-353l-54 -242h251l-15 -68h-251l-61 -276h373l-15 -68h-453zM558 902h109l-163 -142h-67z" />
    <glyph glyph-name="Ecircumflex" unicode="&#xca;" horiz-adv-x="611" 
d="M268 722h433l-15 -68h-353l-54 -242h251l-15 -68h-251l-61 -276h373l-15 -68h-453zM356 760l130 142h94l68 -142h-80l-46 94l-86 -94h-80z" />
    <glyph glyph-name="Edieresis" unicode="&#xcb;" horiz-adv-x="611" 
d="M268 722h433l-15 -68h-353l-54 -242h251l-15 -68h-251l-61 -276h373l-15 -68h-453zM628 770h-88l21 94h88zM470 770h-88l21 94h88z" />
    <glyph glyph-name="Igrave" unicode="&#xcc;" horiz-adv-x="333" 
d="M286 722h80l-160 -722h-80zM234 902h109l57 -142h-67z" />
    <glyph glyph-name="Iacute" unicode="&#xcd;" horiz-adv-x="333" 
d="M286 722h80l-160 -722h-80zM391 902h109l-163 -142h-67z" />
    <glyph glyph-name="Icircumflex" unicode="&#xce;" horiz-adv-x="333" 
d="M286 722h80l-160 -722h-80zM189 760l130 142h94l68 -142h-80l-46 94l-86 -94h-80z" />
    <glyph glyph-name="Idieresis" unicode="&#xcf;" horiz-adv-x="333" 
d="M286 722h80l-160 -722h-80zM461 770h-88l21 94h88zM303 770h-88l21 94h88z" />
    <glyph glyph-name="Eth" unicode="&#xd0;" horiz-adv-x="667" 
d="M271 412h188l-15 -68h-188l-61 -276h108q252 0 317 293q34 152 -16 222.5t-167 70.5h-112zM123 412h68l69 310h194q150 0 217.5 -93.5t28.5 -267.5q-36 -164 -144 -262.5t-266 -98.5h-190l76 344h-68z" />
    <glyph glyph-name="Ntilde" unicode="&#xd1;" horiz-adv-x="722" 
d="M180 0h-72l160 722h115l192 -556h4l123 556h72l-160 -722h-66l-223 644h-2zM678 885h50q-13 -40 -48 -73.5t-73 -33.5q-24 0 -73 19q-46 19 -71 19q-15 0 -31.5 -15t-21.5 -32h-50q16 48 50.5 78.5t81.5 30.5q29 0 69 -18q38 -19 60 -19q40 0 57 44z" />
    <glyph glyph-name="Ograve" unicode="&#xd2;" horiz-adv-x="667" 
d="M211 361q-33 -151 2.5 -227t132.5 -76t166.5 76t102.5 227t-2.5 227t-132.5 76t-166.5 -76t-102.5 -227zM131 361q39 179 134.5 275t229.5 96t186.5 -96t13.5 -275t-134.5 -275t-229.5 -96t-186.5 96t-13.5 275zM401 902h109l57 -142h-67z" />
    <glyph glyph-name="Oacute" unicode="&#xd3;" horiz-adv-x="667" 
d="M211 361q-33 -151 2.5 -227t132.5 -76t166.5 76t102.5 227t-2.5 227t-132.5 76t-166.5 -76t-102.5 -227zM131 361q39 179 134.5 275t229.5 96t186.5 -96t13.5 -275t-134.5 -275t-229.5 -96t-186.5 96t-13.5 275zM558 902h109l-163 -142h-67z" />
    <glyph glyph-name="Ocircumflex" unicode="&#xd4;" horiz-adv-x="667" 
d="M211 361q-33 -151 2.5 -227t132.5 -76t166.5 76t102.5 227t-2.5 227t-132.5 76t-166.5 -76t-102.5 -227zM131 361q39 179 134.5 275t229.5 96t186.5 -96t13.5 -275t-134.5 -275t-229.5 -96t-186.5 96t-13.5 275zM356 760l130 142h94l68 -142h-80l-46 94l-86 -94h-80z" />
    <glyph glyph-name="Otilde" unicode="&#xd5;" horiz-adv-x="667" 
d="M211 361q-33 -151 2.5 -227t132.5 -76t166.5 76t102.5 227t-2.5 227t-132.5 76t-166.5 -76t-102.5 -227zM131 361q39 179 134.5 275t229.5 96t186.5 -96t13.5 -275t-134.5 -275t-229.5 -96t-186.5 96t-13.5 275zM651 885h50q-13 -40 -48 -73.5t-73 -33.5q-24 0 -73 19
q-46 19 -71 19q-15 0 -31.5 -15t-21.5 -32h-50q16 48 50.5 78.5t81.5 30.5q29 0 69 -18q38 -19 60 -19q40 0 57 44z" />
    <glyph glyph-name="Odieresis" unicode="&#xd6;" horiz-adv-x="667" 
d="M211 361q-33 -151 2.5 -227t132.5 -76t166.5 76t102.5 227t-2.5 227t-132.5 76t-166.5 -76t-102.5 -227zM131 361q39 179 134.5 275t229.5 96t186.5 -96t13.5 -275t-134.5 -275t-229.5 -96t-186.5 96t-13.5 275zM628 770h-88l21 94h88zM470 770h-88l21 94h88z" />
    <glyph glyph-name="multiply" unicode="&#xd7;" horiz-adv-x="600" 
d="M367 302l264 218l35 -44l-264 -216l168 -216l-54 -44l-168 216l-264 -216l-34 44l264 216l-168 216l53 44z" />
    <glyph glyph-name="Oslash" unicode="&#xd8;" horiz-adv-x="667" 
d="M206 158l389 459q-38 47 -115 47q-97 0 -166.5 -76t-102.5 -227q-28 -129 -5 -203zM620 566l-389 -459q34 -49 115 -49q97 0 166.5 76t102.5 227q30 130 5 205zM794 770l-113 -132q54 -96 14 -277q-39 -179 -134.5 -275t-229.5 -96q-98 0 -154 54l-92 -108h-67l127 149
q-54 97 -14 276q39 179 134.5 275t229.5 96q100 0 153 -52l76 90h70z" />
    <glyph glyph-name="Ugrave" unicode="&#xd9;" horiz-adv-x="722" 
d="M268 722h80l-113 -510q-15 -66 21 -110t118 -44q81 0 136.5 44t70.5 110l113 510h80l-112 -504q-24 -106 -106.5 -167t-196.5 -61t-170.5 61t-32.5 167zM428 902h109l57 -142h-67z" />
    <glyph glyph-name="Uacute" unicode="&#xda;" horiz-adv-x="722" 
d="M268 722h80l-113 -510q-15 -66 21 -110t118 -44q81 0 136.5 44t70.5 110l113 510h80l-112 -504q-24 -106 -106.5 -167t-196.5 -61t-170.5 61t-32.5 167zM585 902h109l-163 -142h-67z" />
    <glyph glyph-name="Ucircumflex" unicode="&#xdb;" horiz-adv-x="722" 
d="M268 722h80l-113 -510q-15 -66 21 -110t118 -44q81 0 136.5 44t70.5 110l113 510h80l-112 -504q-24 -106 -106.5 -167t-196.5 -61t-170.5 61t-32.5 167zM383 760l130 142h94l68 -142h-80l-46 94l-86 -94h-80z" />
    <glyph glyph-name="Udieresis" unicode="&#xdc;" horiz-adv-x="722" 
d="M268 722h80l-113 -510q-15 -66 21 -110t118 -44q81 0 136.5 44t70.5 110l113 510h80l-112 -504q-24 -106 -106.5 -167t-196.5 -61t-170.5 61t-32.5 167zM655 770h-88l21 94h88zM497 770h-88l21 94h88z" />
    <glyph glyph-name="Yacute" unicode="&#xdd;" horiz-adv-x="556" 
d="M238 0l67 304l-129 418h88l101 -331l247 331h88l-315 -418l-67 -304h-80zM502 902h109l-163 -142h-67z" />
    <glyph glyph-name="Thorn" unicode="&#xde;" horiz-adv-x="611" 
d="M294 514l-59 -264h136q97 0 144.5 32.5t62.5 99.5q29 132 -130 132h-154zM180 0h-80l160 722h80l-31 -140h172q111 0 154 -56t22 -146q-20 -93 -98 -145.5t-211 -52.5h-128z" />
    <glyph glyph-name="germandbls" unicode="&#xdf;" horiz-adv-x="556" 
d="M235 17l40 59q22 -24 67 -24q51 0 85.5 38.5t48.5 100.5q21 94 -16 135.5t-125 41.5l13 62h29q44 0 84 35t51 87q27 118 -85 118q-57 0 -90.5 -33t-51.5 -101l-119 -536h-72l123 554q20 90 83.5 134t141.5 44q87 0 124 -48t20 -126q-24 -107 -123 -151v-2
q125 -39 86 -209q-21 -95 -83 -150.5t-132 -55.5q-61 0 -99 27z" />
    <glyph glyph-name="agrave" unicode="&#xe0;" 
d="M206 387l-56 33q84 110 219 110q75 0 119 -38.5t27 -117.5l-58 -262q-15 -65 -13 -112h-74l8 72q-92 -82 -190 -82q-64 0 -98 37.5t-19 105.5q19 85 102 133t263 79l7 28q21 95 -86 95q-54 0 -92.5 -24.5t-58.5 -56.5zM391 138l31 143q-256 -43 -279 -149q-7 -34 15 -57
t54 -23q38 0 88 24.5t91 61.5zM272 722h109l58 -142h-67z" />
    <glyph glyph-name="aacute" unicode="&#xe1;" 
d="M206 387l-56 33q84 110 219 110q75 0 119 -38.5t27 -117.5l-58 -262q-15 -65 -13 -112h-74l8 72q-92 -82 -190 -82q-64 0 -98 37.5t-19 105.5q19 85 102 133t263 79l7 28q21 95 -86 95q-54 0 -92.5 -24.5t-58.5 -56.5zM391 138l31 143q-256 -43 -279 -149q-7 -34 15 -57
t54 -23q38 0 88 24.5t91 61.5zM429 722h109l-162 -142h-67z" />
    <glyph glyph-name="acircumflex" unicode="&#xe2;" 
d="M206 387l-56 33q84 110 219 110q75 0 119 -38.5t27 -117.5l-58 -262q-15 -65 -13 -112h-74l8 72q-92 -82 -190 -82q-64 0 -98 37.5t-19 105.5q19 85 102 133t263 79l7 28q21 95 -86 95q-54 0 -92.5 -24.5t-58.5 -56.5zM391 138l31 143q-256 -43 -279 -149q-7 -34 15 -57
t54 -23q38 0 88 24.5t91 61.5zM228 580l129 142h94l69 -142h-80l-47 94l-85 -94h-80z" />
    <glyph glyph-name="atilde" unicode="&#xe3;" 
d="M206 387l-56 33q84 110 219 110q75 0 119 -38.5t27 -117.5l-58 -262q-15 -65 -13 -112h-74l8 72q-92 -82 -190 -82q-64 0 -98 37.5t-19 105.5q19 85 102 133t263 79l7 28q21 95 -86 95q-54 0 -92.5 -24.5t-58.5 -56.5zM391 138l31 143q-256 -43 -279 -149q-7 -34 15 -57
t54 -23q38 0 88 24.5t91 61.5zM522 705h50q-13 -40 -47.5 -73.5t-72.5 -33.5q-25 0 -74 19q-46 19 -71 19q-15 0 -31.5 -15t-20.5 -32h-50q15 48 49.5 78.5t81.5 30.5q29 0 69 -18q40 -19 61 -19q19 0 34 12t22 32z" />
    <glyph glyph-name="adieresis" unicode="&#xe4;" 
d="M206 387l-56 33q84 110 219 110q75 0 119 -38.5t27 -117.5l-58 -262q-15 -65 -13 -112h-74l8 72q-92 -82 -190 -82q-64 0 -98 37.5t-19 105.5q19 85 102 133t263 79l7 28q21 95 -86 95q-54 0 -92.5 -24.5t-58.5 -56.5zM391 138l31 143q-256 -43 -279 -149q-7 -34 15 -57
t54 -23q38 0 88 24.5t91 61.5zM499 590h-88l21 94h88zM341 590h-88l21 94h88z" />
    <glyph glyph-name="aring" unicode="&#xe5;" 
d="M206 387l-56 33q84 110 219 110q75 0 119 -38.5t27 -117.5l-58 -262q-15 -65 -13 -112h-74l8 72q-92 -82 -190 -82q-64 0 -98 37.5t-19 105.5q19 85 102 133t263 79l7 28q21 95 -86 95q-54 0 -92.5 -24.5t-58.5 -56.5zM391 138l31 143q-256 -43 -279 -149q-7 -34 15 -57
t54 -23q38 0 88 24.5t91 61.5zM296 680q9 41 45 70.5t77 29.5t64 -29.5t14 -70.5t-45 -70.5t-77 -29.5t-64 29.5t-14 70.5zM340 680q-5 -23 7.5 -39.5t35.5 -16.5t43.5 16.5t25.5 39.5t-8 39.5t-36 16.5t-43 -16.5t-25 -39.5z" />
    <glyph glyph-name="ae" unicode="&#xe6;" horiz-adv-x="778" 
d="M366 134l32 147q-48 -9 -85 -19.5t-78 -28t-67 -43t-33 -58.5q-7 -35 13 -57.5t54 -22.5q46 0 93.5 26t70.5 56zM783 246h-320q-21 -92 5 -143t100 -51q39 0 79 23.5t72 64.5l50 -29q-44 -56 -94.5 -88.5t-126.5 -32.5q-55 0 -94 18.5t-61 69.5q-65 -52 -114 -70
t-105 -18q-55 0 -90.5 36t-22.5 96q13 56 45.5 96t85 64.5t101 37.5t119.5 25l7 28q21 95 -77 95q-52 0 -89.5 -24.5t-57.5 -56.5l-54 33q35 48 90 79t120 31q106 0 135 -70q72 70 165 70q84 0 126 -59t16 -177zM476 308h248q17 72 -7.5 116t-82.5 44q-118 0 -158 -160z" />
    <glyph glyph-name="ccedilla" unicode="&#xe7;" 
d="M529 389l-72 -24q-10 103 -100 103q-67 0 -116 -54.5t-71 -153.5t3 -153.5t92 -54.5q50 0 86 20.5t78 75.5l52 -26q-53 -65 -97.5 -95.5t-106.5 -35.5l-51 -49l2 -2q15 5 31 5q41 0 57.5 -24.5t7.5 -59.5q-10 -41 -46.5 -63t-93.5 -22q-47 0 -89 21l27 44q25 -19 62 -19
q55 0 65 43q4 16 -5.5 27t-27.5 11q-26 0 -47 -8l-13 19l73 77q-87 8 -122 79.5t-9 189.5q28 125 101 197.5t171 72.5q75 0 110.5 -36.5t48.5 -104.5z" />
    <glyph glyph-name="egrave" unicode="&#xe8;" 
d="M441 140l50 -29q-44 -56 -95.5 -88.5t-131.5 -32.5q-95 0 -145.5 68t-20.5 202q28 125 101 197.5t170 72.5q87 0 129.5 -59t16.5 -177l-10 -48h-338q-19 -84 13.5 -139t97.5 -55q95 0 163 88zM182 308h264q17 73 -6.5 116.5t-81.5 43.5q-64 0 -109 -43t-67 -117zM277 722
h109l58 -142h-67z" />
    <glyph glyph-name="eacute" unicode="&#xe9;" 
d="M441 140l50 -29q-44 -56 -95.5 -88.5t-131.5 -32.5q-95 0 -145.5 68t-20.5 202q28 125 101 197.5t170 72.5q87 0 129.5 -59t16.5 -177l-10 -48h-338q-19 -84 13.5 -139t97.5 -55q95 0 163 88zM182 308h264q17 73 -6.5 116.5t-81.5 43.5q-64 0 -109 -43t-67 -117zM434 722
h109l-162 -142h-67z" />
    <glyph glyph-name="ecircumflex" unicode="&#xea;" 
d="M441 140l50 -29q-44 -56 -95.5 -88.5t-131.5 -32.5q-95 0 -145.5 68t-20.5 202q28 125 101 197.5t170 72.5q87 0 129.5 -59t16.5 -177l-10 -48h-338q-19 -84 13.5 -139t97.5 -55q95 0 163 88zM182 308h264q17 73 -6.5 116.5t-81.5 43.5q-64 0 -109 -43t-67 -117zM233 580
l129 142h94l69 -142h-80l-47 94l-85 -94h-80z" />
    <glyph glyph-name="edieresis" unicode="&#xeb;" 
d="M182 308h264q17 73 -6.5 116.5t-81.5 43.5q-64 0 -109 -43t-67 -117zM441 140l50 -29q-44 -56 -95.5 -88.5t-131.5 -32.5q-95 0 -145.5 68t-20.5 202q28 125 101 197.5t170 72.5q87 0 129.5 -59t16.5 -177l-10 -48h-338q-19 -84 13.5 -139t97.5 -55q95 0 163 88zM504 590
h-88l21 94h88zM346 590h-88l21 94h88z" />
    <glyph glyph-name="igrave" unicode="&#xec;" horiz-adv-x="278" 
d="M103 0l115 520h72l-115 -520h-72zM166 722h109l58 -142h-67z" />
    <glyph glyph-name="iacute" unicode="&#xed;" horiz-adv-x="278" 
d="M103 0l115 520h72l-115 -520h-72zM323 722h109l-162 -142h-67z" />
    <glyph glyph-name="icircumflex" unicode="&#xee;" horiz-adv-x="278" 
d="M103 0l115 520h72l-115 -520h-72zM122 580l129 142h94l69 -142h-80l-47 94l-85 -94h-80z" />
    <glyph glyph-name="idieresis" unicode="&#xef;" horiz-adv-x="278" 
d="M103 0l115 520h72l-115 -520h-72zM393 590h-88l21 94h88zM235 590h-88l21 94h88z" />
    <glyph glyph-name="eth" unicode="&#xf0;" 
d="M262 52q69 0 116 51.5t68 142.5q19 88 -5.5 139t-93.5 51t-116.5 -51t-66.5 -139q-21 -91 3.5 -142.5t94.5 -51.5zM283 698l68 24q39 -28 70 -68l123 60l19 -50l-109 -55q48 -75 66.5 -162.5t-0.5 -188.5q-26 -121 -97.5 -194.5t-174.5 -73.5q-104 0 -143.5 69t-12.5 187
q26 116 95 184t173 68q29 0 71 -14q-10 42 -43 92l-119 -58l-24 48l114 55q-40 49 -76 77z" />
    <glyph glyph-name="ntilde" unicode="&#xf1;" horiz-adv-x="556" 
d="M204 520h72l-15 -70h2q89 80 171 80q65 0 99.5 -37t17.5 -115l-84 -378h-72l83 376q21 92 -64 92q-37 0 -84 -24t-83 -55l-86 -389h-72zM555 705h50q-13 -40 -47.5 -73.5t-72.5 -33.5q-25 0 -74 19q-46 19 -71 19q-15 0 -31.5 -15t-20.5 -32h-50q15 48 49.5 78.5
t81.5 30.5q29 0 69 -18q40 -19 61 -19q19 0 34 12t22 32z" />
    <glyph glyph-name="ograve" unicode="&#xf2;" 
d="M449 260q22 99 -4 153.5t-91 54.5q-66 0 -116 -54.5t-71 -153.5q-22 -99 4 -153.5t91 -54.5t115 54.5t72 153.5zM521 260q-27 -118 -99 -194t-174 -76q-103 0 -141.5 76t-11.5 194q26 118 98 194t174 76t141 -76t13 -194zM277 722h109l58 -142h-67z" />
    <glyph glyph-name="oacute" unicode="&#xf3;" 
d="M449 260q22 99 -4 153.5t-91 54.5q-66 0 -116 -54.5t-71 -153.5q-22 -99 4 -153.5t91 -54.5t115 54.5t72 153.5zM521 260q-27 -118 -99 -194t-174 -76q-103 0 -141.5 76t-11.5 194q26 118 98 194t174 76t141 -76t13 -194zM434 722h109l-162 -142h-67z" />
    <glyph glyph-name="ocircumflex" unicode="&#xf4;" 
d="M449 260q22 99 -4 153.5t-91 54.5q-66 0 -116 -54.5t-71 -153.5q-22 -99 4 -153.5t91 -54.5t115 54.5t72 153.5zM521 260q-27 -118 -99 -194t-174 -76q-103 0 -141.5 76t-11.5 194q26 118 98 194t174 76t141 -76t13 -194zM233 580l129 142h94l69 -142h-80l-47 94l-85 -94
h-80z" />
    <glyph glyph-name="otilde" unicode="&#xf5;" 
d="M449 260q22 99 -4 153.5t-91 54.5q-66 0 -116 -54.5t-71 -153.5q-22 -99 4 -153.5t91 -54.5t115 54.5t72 153.5zM521 260q-27 -118 -99 -194t-174 -76q-103 0 -141.5 76t-11.5 194q26 118 98 194t174 76t141 -76t13 -194zM527 705h50q-13 -40 -47.5 -73.5t-72.5 -33.5
q-25 0 -74 19q-46 19 -71 19q-15 0 -31.5 -15t-20.5 -32h-50q15 48 49.5 78.5t81.5 30.5q29 0 69 -18q40 -19 61 -19q19 0 34 12t22 32z" />
    <glyph glyph-name="odieresis" unicode="&#xf6;" 
d="M449 260q22 99 -4 153.5t-91 54.5q-66 0 -116 -54.5t-71 -153.5q-22 -99 4 -153.5t91 -54.5t115 54.5t72 153.5zM521 260q-27 -118 -99 -194t-174 -76q-103 0 -141.5 76t-11.5 194q26 118 98 194t174 76t141 -76t13 -194zM504 590h-88l21 94h88zM346 590h-88l21 94h88z
" />
    <glyph glyph-name="divide" unicode="&#xf7;" horiz-adv-x="600" 
d="M611 229h-520l14 62h520zM342 468q5 25 27 43.5t48 18.5q25 0 39.5 -18t9.5 -44q-6 -26 -28.5 -44t-47.5 -18q-26 0 -40 18.5t-8 43.5zM250 52q5 25 27 43.5t48 18.5q25 0 39.5 -18t9.5 -44q-6 -26 -28.5 -44t-47.5 -18q-26 0 -40 18.5t-8 43.5z" />
    <glyph glyph-name="oslash" unicode="&#xf8;" 
d="M451 396l-260 -319q25 -25 71 -25q65 0 115 54.5t72 153.5q18 84 2 136zM552 602h65l-113 -140q45 -74 17 -202q-27 -118 -99 -194t-174 -76q-66 0 -102 31l-84 -103h-64l114 141q-46 74 -17 201q26 118 98 194t174 76q63 0 102 -31zM164 124l259 319q-25 25 -69 25
q-66 0 -116 -54.5t-71 -153.5q-19 -83 -3 -136z" />
    <glyph glyph-name="ugrave" unicode="&#xf9;" horiz-adv-x="556" 
d="M467 0h-72l16 70h-2q-90 -80 -172 -80q-64 0 -99 37t-18 115l84 378h72l-83 -376q-20 -92 65 -92q37 0 83.5 24t82.5 55l86 389h72zM305 722h109l58 -142h-67z" />
    <glyph glyph-name="uacute" unicode="&#xfa;" horiz-adv-x="556" 
d="M467 0h-72l16 70h-2q-90 -80 -172 -80q-64 0 -99 37t-18 115l84 378h72l-83 -376q-20 -92 65 -92q37 0 83.5 24t82.5 55l86 389h72zM462 722h109l-162 -142h-67z" />
    <glyph glyph-name="ucircumflex" unicode="&#xfb;" horiz-adv-x="556" 
d="M467 0h-72l16 70h-2q-90 -80 -172 -80q-64 0 -99 37t-18 115l84 378h72l-83 -376q-20 -92 65 -92q37 0 83.5 24t82.5 55l86 389h72zM261 580l129 142h94l69 -142h-80l-47 94l-85 -94h-80z" />
    <glyph glyph-name="udieresis" unicode="&#xfc;" horiz-adv-x="556" 
d="M467 0h-72l16 70h-2q-90 -80 -172 -80q-64 0 -99 37t-18 115l84 378h72l-83 -376q-20 -92 65 -92q37 0 83.5 24t82.5 55l86 389h72zM532 590h-88l21 94h88zM374 590h-88l21 94h88z" />
    <glyph glyph-name="yacute" unicode="&#xfd;" horiz-adv-x="444" 
d="M467 520h76l-308 -566q-81 -146 -208 -146q-11 0 -50 6l13 59q30 -3 38 -3q109 0 164 124l-65 526h76l52 -397h2zM406 722h109l-162 -142h-67z" />
    <glyph glyph-name="thorn" unicode="&#xfe;" horiz-adv-x="556" 
d="M117 -192h-72l203 914h72l-58 -263h2q27 30 70 50.5t80 20.5t69 -13t59.5 -44t33.5 -83t-8 -130q-16 -72 -48 -127t-71 -84.5t-77 -44t-73 -14.5q-68 0 -124 58l-4 2zM248 398l-61 -274q50 -72 116 -72q147 0 194 212q21 98 -6.5 151t-95.5 53q-34 0 -67 -16t-80 -54z
" />
    <glyph glyph-name="ydieresis" unicode="&#xff;" horiz-adv-x="444" 
d="M467 520h76l-308 -566q-81 -146 -208 -146q-11 0 -50 6l13 59q30 -3 38 -3q109 0 164 124l-65 526h76l52 -397h2zM476 590h-88l21 94h88zM318 590h-88l21 94h88z" />
    <glyph glyph-name="dotlessi" unicode="&#x131;" horiz-adv-x="278" 
d="M103 0l115 520h72l-115 -520h-72z" />
    <glyph glyph-name="Lslash" unicode="&#x141;" horiz-adv-x="556" 
d="M263 337l-60 -269h342l-15 -68h-422l68 305l-101 -37l15 68l101 37l77 349h80l-70 -317l209 78l-15 -68z" />
    <glyph glyph-name="lslash" unicode="&#x142;" horiz-adv-x="278" 
d="M262 392l-87 -392h-72l79 355l-99 -46l15 68l99 46l66 299h72l-58 -262l99 45l-15 -68z" />
    <glyph glyph-name="OE" unicode="&#x152;" horiz-adv-x="1000" 
d="M978 68l-15 -68h-451q-31 0 -79 -5q-70 -5 -89 -5q-81 0 -135.5 28.5t-78.5 78.5t-29 118t15 146q37 167 135.5 269t256.5 102q44 0 87 -5q70 -5 77 -5h431l-15 -68h-353l-54 -242h251l-15 -68h-251l-61 -276h373zM552 188l76 346q16 71 -18.5 100.5t-118.5 29.5
q-227 0 -295 -303t161 -303q84 0 131.5 29.5t63.5 100.5z" />
    <glyph glyph-name="oe" unicode="&#x153;" horiz-adv-x="778" 
d="M153 260q-23 -99 -1 -153.5t84 -54.5q65 0 110 53.5t68 154.5q46 208 -86 208q-62 0 -107.5 -54.5t-67.5 -153.5zM803 246h-320q-44 -194 93 -194q46 0 86.5 23.5t66.5 64.5l50 -29q-80 -121 -217 -121q-126 0 -151 95q-77 -95 -189 -95q-90 0 -129.5 73t-11.5 197
q27 124 98.5 197t161.5 73q111 0 148 -93q65 93 186 93q82 0 123 -59.5t15 -176.5zM498 308h246q17 73 -6.5 116.5t-81.5 43.5q-118 0 -158 -160z" />
    <glyph glyph-name="Scaron" unicode="&#x160;" horiz-adv-x="611" 
d="M643 554l-76 -16q-2 56 -37.5 91t-102.5 35q-63 0 -105 -29t-55 -83q-7 -32 9.5 -56.5t48.5 -41.5t72 -32.5t79.5 -34t70 -41.5t45 -60t4.5 -84q-20 -90 -91.5 -151t-198.5 -61q-56 0 -97 16.5t-64.5 46.5t-35.5 58.5t-20 66.5l79 26q23 -146 157 -146q77 0 126 36t62 94
q8 37 -8 65.5t-48 46.5t-72 34t-79.5 33.5t-70 39.5t-45 57.5t-4.5 81.5q18 79 90 132.5t168 53.5q86 0 138 -45t61 -133zM360 902h80l44 -94l88 94h80l-132 -142h-94z" />
    <glyph glyph-name="scaron" unicode="&#x161;" horiz-adv-x="444" 
d="M44 89l66 43q38 -80 132 -80q55 0 89 25t42 61q7 31 -11.5 51.5t-50.5 30t-68.5 22.5t-67 27.5t-45.5 45t-4 75.5q17 66 72 103.5t131 36.5q52 -1 96.5 -26.5t61.5 -64.5l-59 -44q-23 38 -50 55.5t-68 17.5q-45 0 -74 -21t-37 -56q-7 -31 20 -50t68.5 -31.5t82 -28
t64 -50.5t11.5 -89q-16 -72 -77.5 -112t-137.5 -40q-62 0 -111.5 26t-74.5 73zM236 722h80l44 -94l88 94h80l-131 -142h-94z" />
    <glyph glyph-name="Ydieresis" unicode="&#x178;" horiz-adv-x="556" 
d="M238 0l67 304l-129 418h88l101 -331l247 331h88l-315 -418l-67 -304h-80zM572 770h-88l21 94h88zM414 770h-88l21 94h88z" />
    <glyph glyph-name="Zcaron" unicode="&#x17d;" horiz-adv-x="556" 
d="M526 68l-15 -68h-466l13 58l494 596h-329l15 68h429l-11 -52l-502 -602h372zM332 902h80l44 -94l88 94h80l-132 -142h-94z" />
    <glyph glyph-name="zcaron" unicode="&#x17e;" horiz-adv-x="444" 
d="M428 62l-14 -62h-384l12 52l374 406h-256l13 62h354l-11 -52l-374 -406h286zM236 722h80l44 -94l88 94h80l-131 -142h-94z" />
    <glyph glyph-name="florin" unicode="&#x192;" horiz-adv-x="611" 
d="M12 -186l25 66q20 -10 46 -10q46 0 70 22t47 78l174 430h-114l13 60h126l24 58q49 118 101 166t132 48q36 0 54 -8l-32 -65q-18 11 -42 11q-40 0 -69.5 -32.5t-67.5 -121.5l-23 -54h116l-13 -62h-127l-176 -421q-36 -87 -85.5 -129t-131.5 -42q-17 0 -47 6z" />
    <glyph glyph-name="circumflex" unicode="&#x2c6;" horiz-adv-x="278" 
d="M122 580l129 142h94l69 -142h-80l-47 94l-85 -94h-80z" />
    <glyph glyph-name="caron" unicode="&#x2c7;" horiz-adv-x="278" 
d="M153 722h80l44 -94l88 94h80l-131 -142h-94z" />
    <glyph glyph-name="uni02C9" unicode="&#x2c9;" horiz-adv-x="278" 
d="M431 612h-312l13 60h312z" />
    <glyph glyph-name="breve" unicode="&#x2d8;" horiz-adv-x="278" 
d="M404 720h49q-49 -136 -185 -136q-65 0 -97.5 34.5t-25.5 101.5h49q-1 -39 21 -58.5t66 -19.5q89 0 123 78z" />
    <glyph glyph-name="dotaccent" unicode="&#x2d9;" horiz-adv-x="278" 
d="M314 590h-88l21 94h88z" />
    <glyph glyph-name="ring" unicode="&#x2da;" horiz-adv-x="278" 
d="M190 680q9 41 45 70.5t77 29.5t64 -29.5t14 -70.5t-45 -70.5t-77 -29.5t-64 29.5t-14 70.5zM234 680q-5 -23 7.5 -39.5t35.5 -16.5t43.5 16.5t25.5 39.5t-8 39.5t-36 16.5t-43 -16.5t-25 -39.5z" />
    <glyph glyph-name="ogonek" unicode="&#x2db;" horiz-adv-x="278" 
d="M236 -123l9 -30q-84 -57 -164 -57q-47 0 -66.5 23.5t-10.5 64.5q24 104 255 141l-2 -10q-159 -51 -175 -122q-5 -24 6.5 -37.5t40.5 -13.5q33 0 107 41z" />
    <glyph glyph-name="tilde" unicode="&#x2dc;" horiz-adv-x="278" 
d="M416 705h50q-13 -40 -47.5 -73.5t-72.5 -33.5q-25 0 -74 19q-46 19 -71 19q-15 0 -31.5 -15t-20.5 -32h-50q15 48 49.5 78.5t81.5 30.5q29 0 69 -18q40 -19 61 -19q19 0 34 12t22 32z" />
    <glyph glyph-name="hungarumlaut" unicode="&#x2dd;" horiz-adv-x="278" 
d="M249 722h107l-154 -142h-63zM399 722h109l-162 -142h-67z" />
    <glyph glyph-name="uni03A9" unicode="&#x3a9;" horiz-adv-x="798" 
d="M237 54l1 3q-55 53 -80 136t-2 187q33 151 149.5 248.5t257.5 97.5t209.5 -101t37.5 -241q-24 -107 -88 -193t-139 -134l-1 -3h170l-12 -54h-259l9 40q84 44 154 130t96 203q7 42 7.5 83.5t-13.5 80.5t-36.5 68.5t-60.5 47.5t-87 18q-116 0 -207.5 -87t-120.5 -213
q-25 -111 7 -200t95 -131l-9 -40h-258l12 54h168z" />
    <glyph glyph-name="uni03BC" unicode="&#x3bc;" horiz-adv-x="556" 
d="M467 0h-72l16 70h-2q-90 -80 -172 -80q-43 0 -75 16l-44 -198h-72l158 712h72l-83 -376q-20 -92 65 -92q37 0 83.5 24t82.5 55l86 389h72z" />
    <glyph glyph-name="pi" unicode="&#x3c0;" horiz-adv-x="616" 
d="M692 474h-92l-71 -320q-23 -102 -17 -154h-66q-11 29 14 146l73 328h-212q-29 -111 -86.5 -259.5t-100.5 -214.5h-67q47 76 101.5 217.5t85.5 256.5q-86 0 -130 -14l-2 44q54 26 157 26h432z" />
    <glyph glyph-name="endash" unicode="&#x2013;" 
d="M52 235l11 50h500l-11 -50h-500z" />
    <glyph glyph-name="emdash" unicode="&#x2014;" horiz-adv-x="1000" 
d="M52 235l11 50h1000l-11 -50h-1000z" />
    <glyph glyph-name="quoteleft" unicode="&#x2018;" horiz-adv-x="278" 
d="M193 480l25 110l94 142h42l-78 -142h40l-25 -110h-98z" />
    <glyph glyph-name="quoteright" unicode="&#x2019;" horiz-adv-x="278" 
d="M351 722l-24 -110l-95 -142h-42l79 142h-40l24 110h98z" />
    <glyph glyph-name="quotesinglbase" unicode="&#x201a;" horiz-adv-x="278" 
d="M215 110l-24 -110l-94 -142h-42l78 142h-40l24 110h98z" />
    <glyph glyph-name="quotedblleft" unicode="&#x201c;" 
d="M209 480l25 110l94 142h42l-78 -142h40l-25 -110h-98zM413 480l25 110l94 142h42l-78 -142h40l-25 -110h-98z" />
    <glyph glyph-name="quotedblright" unicode="&#x201d;" 
d="M557 722l-24 -110l-95 -142h-42l79 142h-40l24 110h98zM353 722l-24 -110l-95 -142h-42l79 142h-40l24 110h98z" />
    <glyph glyph-name="quotedblbase" unicode="&#x201e;" 
d="M421 110l-24 -110l-94 -142h-42l78 142h-40l24 110h98zM217 110l-24 -110l-94 -142h-42l78 142h-40l24 110h98z" />
    <glyph glyph-name="dagger" unicode="&#x2020;" 
d="M372 732h80l-70 -208l165 22l-17 -78l-154 26l-15 -174l-114 -404h-32l66 404l63 174l-166 -26l17 78l155 -22z" />
    <glyph glyph-name="daggerdbl" unicode="&#x2021;" 
d="M376 494l-14 -170l-62 -170l166 26l-17 -78l-156 22l-22 -208h-80l70 208l-164 -22l17 78l154 -26l14 170l62 170l-166 -26l17 78l155 -22l22 208h80l-70 -208l165 22l-17 -78z" />
    <glyph glyph-name="bullet" unicode="&#x2022;" 
d="M149 361q16 75 80.5 127.5t139.5 52.5t116 -52.5t25 -127.5t-81 -128t-140 -53t-116 53t-24 128z" />
    <glyph glyph-name="ellipsis" unicode="&#x2026;" horiz-adv-x="1000" 
d="M142 110h98l-24 -110h-98zM475 110h98l-24 -110h-98zM808 110h98l-24 -110h-98z" />
    <glyph glyph-name="perthousand" unicode="&#x2030;" horiz-adv-x="1000" 
d="M722 148q13 61 67 104.5t114 43.5t94 -43.5t21 -104.5t-67 -104.5t-114 -43.5t-94 43.5t-21 104.5zM780 148q-8 -36 12.5 -63t57.5 -27q33 0 67 26t43 64t-14 64t-56 26t-67 -26t-43 -64zM360 148q13 61 67 104.5t114 43.5t94 -43.5t21 -104.5t-67 -104.5t-114 -43.5
t-94 43.5t-21 104.5zM418 148q-8 -36 12.5 -63t57.5 -27q33 0 67 26t43 64t-14 64t-56 26t-67 -26t-43 -64zM142 574q13 61 67 104.5t114 43.5t94 -43.5t21 -104.5t-67 -104.5t-114 -43.5t-94 43.5t-21 104.5zM200 574q-8 -36 12.5 -63t57.5 -27q33 0 67 26t43 64t-14 64
t-56 26t-67 -26t-43 -64zM710 732l-565 -742h-59l563 742h61z" />
    <glyph glyph-name="guilsinglleft" unicode="&#x2039;" horiz-adv-x="333" 
d="M277 418h70l-164 -158l94 -158h-68l-97 158z" />
    <glyph glyph-name="guilsinglright" unicode="&#x203a;" horiz-adv-x="333" 
d="M172 418h70l95 -158l-167 -158h-68l164 158z" />
    <glyph glyph-name="fraction" unicode="&#x2044;" horiz-adv-x="167" 
d="M-110 -10h-59l603 742h62z" />
    <glyph glyph-name="Euro" unicode="&#x20ac;" horiz-adv-x="611" 
d="M705 628l-46 -82q-6 18 -14.5 35t-25.5 39.5t-46.5 36t-66.5 13.5q-46 0 -85.5 -20t-66.5 -53.5t-45 -69.5t-27 -75h324l-35 -62h-301l-19 -88h271l-35 -62h-250q-16 -80 23 -134t112 -54q46 0 87 17t62.5 34t49.5 45l-19 -83q-83 -75 -193 -75q-108 0 -160.5 71
t-36.5 179h-83l35 62h62l19 88h-83l35 62h62q26 117 111.5 198.5t198.5 81.5q136 0 186 -104z" />
    <glyph glyph-name="afii61289" unicode="&#x2113;" horiz-adv-x="521" 
d="M494 154l29 -28q-99 -131 -229 -131q-85 0 -116.5 54.5t-17.5 137.5l3 13q-11 -7 -36.5 -24.5t-38.5 -26.5l-13 40q10 7 46.5 32t54.5 39l63 286q29 130 88.5 187.5t126.5 57.5q64 0 88 -47t8 -118q-21 -94 -100.5 -187t-213.5 -196l-7 -29q-18 -83 9.5 -124.5
t80.5 -41.5q49 0 96 31.5t79 74.5zM305 555l-54 -246q105 89 168 164t80 150q26 118 -57 118q-38 0 -77 -45t-60 -141z" />
    <glyph glyph-name="trademark" unicode="&#x2122;" horiz-adv-x="990" 
d="M536 722l-12 -54h-128l-79 -358h-68l79 358h-126l12 54h322zM649 654l-76 -344h-68l91 412h105l55 -312l189 312h105l-91 -412h-68l76 344h-2l-211 -344h-44l-59 344h-2z" />
    <glyph glyph-name="Omega" unicode="&#x2126;" horiz-adv-x="798" 
d="M237 54l1 3q-55 53 -80 136t-2 187q33 151 149.5 248.5t257.5 97.5t209.5 -101t37.5 -241q-24 -107 -88 -193t-139 -134l-1 -3h170l-12 -54h-259l9 40q84 44 154 130t96 203q7 42 7.5 83.5t-13.5 80.5t-36.5 68.5t-60.5 47.5t-87 18q-116 0 -207.5 -87t-120.5 -213
q-25 -111 7 -200t95 -131l-9 -40h-258l12 54h168z" />
    <glyph glyph-name="estimated" unicode="&#x212e;" horiz-adv-x="1056" 
d="M1021 351h-668q-5 0 -5 -5v-202q0 -12 9 -23q105 -110 252 -110q158 0 266 123h59q-57 -66 -142.5 -104.5t-183.5 -38.5q-170 0 -291 108t-121 261q0 154 121 263t291 109q171 0 292 -109t121 -263v-9zM869 377v203q0 15 -10 24q-106 106 -250 106q-145 0 -251 -109
q-10 -10 -10 -25v-199q0 -7 5 -7h512q4 0 4 7z" />
    <glyph glyph-name="partialdiff" unicode="&#x2202;" horiz-adv-x="588" 
d="M265 698l-15 47q87 57 191 57q111 0 168 -101.5t16 -285.5q-40 -180 -139.5 -300.5t-233.5 -120.5q-67 0 -108 36.5t-48.5 89t2.5 111.5q25 114 108.5 186t177.5 72q69 0 111.5 -37t53.5 -72h1q5 16 12 49q32 142 -10 230.5t-129 88.5q-82 0 -158 -50zM269 48h2
q78 0 147.5 77t106.5 187q-5 44 -43 83.5t-100 39.5q-70 0 -134 -59.5t-83 -143.5q-18 -79 11 -131.5t93 -52.5z" />
    <glyph glyph-name="Delta" unicode="&#x2206;" horiz-adv-x="708" 
d="M34 0l11 49l434 686h78l127 -686l-11 -49h-639zM115 54h497l-77 414q-2 16 -16.5 91.5t-16.5 102.5h-5q-10 -21 -53.5 -90t-53.5 -86z" />
    <glyph glyph-name="product" unicode="&#x220f;" horiz-adv-x="915" 
d="M888 654h-123v-753h-67v753h-323v-753h-66v753h-124v60h703v-60z" />
    <glyph glyph-name="summation" unicode="&#x2211;" horiz-adv-x="761" 
d="M736 -99h-554v45l300 360l-287 362v46h525v-58h-427v-4l268 -337l-288 -347v-3h463v-64z" />
    <glyph glyph-name="minus" unicode="&#x2212;" horiz-adv-x="600" 
d="M611 229h-520l14 62h520z" />
    <glyph glyph-name="uni2215" unicode="&#x2215;" horiz-adv-x="167" 
d="M-110 -10h-59l603 742h62z" />
    <glyph glyph-name="uni2219" unicode="&#x2219;" horiz-adv-x="305" 
d="M147 259q6 27 27.5 45t48.5 18q26 0 40 -18.5t8 -44.5q-5 -25 -27 -43t-48 -18q-27 0 -40.5 17.5t-8.5 43.5z" />
    <glyph glyph-name="radical" unicode="&#x221a;" horiz-adv-x="774" 
d="M776 847l-242 -1002h-62l-177 480l-81 -31l-15 42l139 54l146 -399l18 -69h1q2 13 14 68l207 857h52z" />
    <glyph glyph-name="infinity" unicode="&#x221e;" horiz-adv-x="932" 
d="M877 297v-1q0 -73 -48 -119.5t-114 -46.5q-48 0 -91 30.5t-106 98.5q-28 -31 -45 -48t-44 -39t-55.5 -32t-59.5 -10q-64 0 -110.5 47.5t-46.5 115.5q0 71 47 118t118 47q55 0 100.5 -33.5t99.5 -95.5q31 34 45 49t42 38.5t55.5 32.5t58.5 9q69 0 111.5 -44.5t42.5 -116.5
zM321 175h1q17 0 34.5 6t30 13t31 22.5t26.5 23.5t26.5 27.5t22.5 23.5q-58 69 -85 89q-46 36 -94 36q-50 0 -79.5 -36.5t-29.5 -88.5q0 -49 32.5 -82.5t83.5 -33.5zM718 416h-1q-26 0 -54 -15t-44 -29t-42.5 -42.5t-31.5 -33.5q63 -67 98.5 -94t76.5 -27q49 0 79 35.5
t30 82.5q0 57 -31 90t-80 33z" />
    <glyph glyph-name="integral" unicode="&#x222b;" horiz-adv-x="534" 
d="M520 856l-13 -47q-18 12 -40 12q-36 0 -55 -24q-39 -42 -39 -185q0 -79 7.5 -258t7.5 -261q0 -141 -48 -206q-33 -49 -99 -49q-40 0 -69 18l14 48q25 -14 50 -14q30 0 51 24q39 48 39 180q0 83 -7.5 264t-7.5 260q0 85 13 135t44 80q37 38 94 38q34 0 58 -15z" />
    <glyph glyph-name="approxequal" unicode="&#x2248;" horiz-adv-x="713" 
d="M631 442l29 -26q-53 -98 -137 -98q-22 0 -44 6.5t-36.5 13.5t-49.5 26q-66 36 -103 36q-35 0 -59.5 -21t-50.5 -59l-30 25q53 99 147 99q19 0 38.5 -5.5t30 -10.5t30.5 -16t24 -13q6 -3 18.5 -9.5t17.5 -9t15.5 -7t17.5 -6.5t16.5 -3.5t19.5 -1.5q33 0 57.5 19.5
t48.5 60.5zM631 263l29 -26q-53 -97 -137 -97q-22 0 -44.5 6.5t-35.5 13t-50 25.5q-64 37 -103 37q-35 0 -59.5 -21t-50.5 -60l-30 26q53 99 147 99q19 0 38.5 -5t31 -10.5t29.5 -15.5t24 -13q2 -1 14.5 -8t15 -8.5t13 -6.5t15.5 -6.5t14 -4t17 -3.5t17 -1q33 0 56.5 18.5
t48.5 60.5z" />
    <glyph glyph-name="notequal" unicode="&#x2260;" horiz-adv-x="735" 
d="M553 525l-51 -109h177v-45h-196l-76 -160h272v-45h-291l-60 -130l-37 18l52 112h-168v45h188l75 160h-263v45h282l59 126z" />
    <glyph glyph-name="lessequal" unicode="&#x2264;" horiz-adv-x="752" 
d="M693 92l-494 240v47l494 240v-55l-443 -207v-2l443 -208v-55zM696 2h-504v46h504v-46z" />
    <glyph glyph-name="greaterequal" unicode="&#x2265;" horiz-adv-x="751" 
d="M200 619l494 -240v-47l-494 -240v55l442 207v2l-442 208v55zM695 2h-502v46h502v-46z" />
    <glyph glyph-name="lozenge" unicode="&#x25ca;" horiz-adv-x="775" 
d="M716 357l-221 -406h-55l-218 406l220 406h55zM653 355l-163 301q-14 28 -21 51h-2q-9 -29 -22 -51l-161 -298l164 -303q16 -31 20 -49h3q9 29 19 49z" />
    </font>
</defs>
</svg>
