<svg id="Layer_1" data-name="Layer 1" xmlns="http://www.w3.org/2000/svg" viewBox="0 0 481 104"><defs><style>.cls-1{fill:#fff;}</style></defs><title>logo</title><path class="cls-1" d="M23.75,24.34a1.62,1.62,0,0,1-1.84-1.83V13.58a1.62,1.62,0,0,1,1.84-1.83H47.63a1.62,1.62,0,0,1,1.84,1.83V94.42a1.62,1.62,0,0,1-1.84,1.83H23.75a1.62,1.62,0,0,1-1.84-1.83V85.49a1.62,1.62,0,0,1,1.84-1.83H36.34V24.34Z"/><path class="cls-1" d="M79.69,83.66a1.62,1.62,0,0,1,1.84,1.83v8.93a1.62,1.62,0,0,1-1.84,1.83H55.81A1.62,1.62,0,0,1,54,94.42V13.58a1.62,1.62,0,0,1,1.84-1.83H79.69a1.62,1.62,0,0,1,1.84,1.83v8.93a1.62,1.62,0,0,1-1.84,1.83H67.09V83.66Z"/><path class="cls-1" d="M108,42.24h3.81V61.76H108Z"/><path class="cls-1" d="M124.7,42.24h4l13.05,14.1V42.24h3.66V61.76H142L128.36,47.15V61.76H124.7Z"/><path class="cls-1" d="M165.08,45.52h-8.72V42.24h21.26v3.28H168.9V61.76h-3.82Z"/><path class="cls-1" d="M188.54,42.24h11.74c4.62,0,7.95,1,7.95,5.83a5.53,5.53,0,0,1-5.46,5.74l6,7.95h-4.7l-5.66-7.68h-6v7.68h-3.82Zm11.17,8.67c3.12,0,4.7-.45,4.7-2.76s-1.58-2.74-4.7-2.74h-7.35v5.5Z"/><path class="cls-1" d="M228,42.24h4.35l9.48,19.52h-4l-2-4.48H224.52l-2.07,4.48h-4.06ZM234.26,54l-4.08-8.7L226.1,54Z"/><path class="cls-1" d="M270.19,42.24h18v3.28H274v4.53h12.16v3.28H274v8.43h-3.82Z"/><path class="cls-1" d="M299.4,42.24h3.81V61.76H299.4Z"/><path class="cls-1" d="M323.09,45.52h-8.72V42.24h21.26v3.28h-8.72V61.76h-3.82Z"/><path class="cls-1" d="M346.55,42.24h4l13.05,14.1V42.24h3.65V61.76h-3.49L350.2,47.15V61.76h-3.65Z"/><path class="cls-1" d="M380,42.24h17.5v3.28H383.79v4.53h11.79v3.28H383.79v5.16h14v3.27H380Z"/><path class="cls-1" d="M424.14,48.17c-.62-1.74-2.2-3.24-6.85-3.24-2.58,0-5.18.64-5.18,2.44,0,.83.48,1.72,4.37,2.2l4.62.7c4.38.67,7,2.36,7,5.64,0,4.62-4.4,6.33-9.61,6.33-8.38,0-10.42-4.13-10.88-5.61l3.68-1.15c.7,1.42,2.15,3.49,7.3,3.49,3.12,0,5.7-1,5.7-2.71,0-1.27-1.45-2.1-4.25-2.45l-4.67-.64c-4.51-.62-7-2.58-7-5.56,0-5.85,7.59-5.85,9.1-5.85,8.4,0,9.85,3.89,10.34,5.23Z"/><path class="cls-1" d="M454.58,48.17c-.62-1.74-2.2-3.24-6.85-3.24-2.58,0-5.18.64-5.18,2.44,0,.83.48,1.72,4.38,2.2l4.61.7c4.38.67,7,2.36,7,5.64,0,4.62-4.4,6.33-9.61,6.33-8.38,0-10.42-4.13-10.88-5.61l3.68-1.15c.7,1.42,2.15,3.49,7.3,3.49,3.12,0,5.7-1,5.7-2.71,0-1.27-1.45-2.1-4.25-2.45l-4.67-.64c-4.51-.62-7-2.58-7-5.56,0-5.85,7.6-5.85,9.1-5.85,8.4,0,9.85,3.89,10.34,5.23Z"/></svg>